{
	"asset":{
		"generator":"Khronos glTF Blender I/O v4.5.48",
		"version":"2.0"
	},
	"extensionsUsed":[
		"KHR_materials_specular",
		"KHR_materials_ior"
	],
	"scene":0,
	"scenes":[
		{
			"name":"Scene",
			"nodes":[
				0,
				5
			]
		}
	],
	"nodes":[
		{
			"mesh":0,
			"name":"Cube"
		},
		{
			"mesh":1,
			"name":"Sphere__0"
		},
		{
			"children":[
				1
			],
			"name":"Sphere",
			"rotation":[
				-0.70710688829422,
				0,
				0,
				0.7071066498756409
			],
			"scale":[
				50000,
				49999.9921875,
				49999.9921875
			]
		},
		{
			"children":[
				2
			],
			"name":"RootNode"
		},
		{
			"children":[
				3
			],
			"name":"7421f569dc814a35afbc2a2c7392fadf.fbx",
			"rotation":[
				0.70710688829422,
				0,
				0,
				0.7071066498756409
			],
			"scale":[
				0.009999999776482582,
				0.010000000707805157,
				0.010000000707805157
			]
		},
		{
			"children":[
				4
			],
			"name":"Sketchfab_model",
			"rotation":[
				-0.70710688829422,
				0,
				0,
				0.7071066498756409
			]
		}
	],
	"materials":[
		{
			"doubleSided":true,
			"name":"Material",
			"pbrMetallicRoughness":{
				"baseColorFactor":[
					0.800000011920929,
					0.800000011920929,
					0.800000011920929,
					1
				],
				"metallicFactor":0,
				"roughnessFactor":0.5
			}
		},
		{
			"emissiveFactor":[
				1,
				1,
				1
			],
			"emissiveTexture":{
				"index":0
			},
			"extensions":{
				"KHR_materials_specular":{
					"specularColorFactor":[
						0.0,
						0.0,
						0.0
					]
				},
				"KHR_materials_ior":{
					"ior":1000
				}
			},
			"name":"Scene_-_Root",
			"pbrMetallicRoughness":{
				"baseColorTexture":{
					"index":1
				},
				"metallicFactor":0,
				"roughnessFactor":0.6000000238418579
			}
		}
	],
	"meshes":[
		{
			"name":"Cube",
			"primitives":[
				{
					"attributes":{
						"POSITION":0,
						"NORMAL":1,
						"TEXCOORD_0":2
					},
					"indices":3,
					"material":0
				}
			]
		},
		{
			"name":"Sphere__0",
			"primitives":[
				{
					"attributes":{
						"POSITION":4,
						"NORMAL":5,
						"TEXCOORD_0":6
					},
					"indices":7,
					"material":1
				}
			]
		}
	],
	"textures":[
		{
			"sampler":0,
			"source":0
		},
		{
			"sampler":0,
			"source":0
		}
	],
	"images":[
		{
			"mimeType":"image/jpeg",
			"name":"Image_0",
			"uri":"Image_0.jpg"
		}
	],
	"accessors":[
		{
			"bufferView":0,
			"componentType":5126,
			"count":24,
			"max":[
				1,
				1,
				1
			],
			"min":[
				-1,
				-1,
				-1
			],
			"type":"VEC3"
		},
		{
			"bufferView":1,
			"componentType":5126,
			"count":24,
			"type":"VEC3"
		},
		{
			"bufferView":2,
			"componentType":5126,
			"count":24,
			"type":"VEC2"
		},
		{
			"bufferView":3,
			"componentType":5123,
			"count":36,
			"type":"SCALAR"
		},
		{
			"bufferView":4,
			"componentType":5126,
			"count":2143,
			"max":[
				0.9999998807907104,
				1,
				1
			],
			"min":[
				-0.9999997019767761,
				-0.9999997615814209,
				-1
			],
			"type":"VEC3"
		},
		{
			"bufferView":5,
			"componentType":5126,
			"count":2143,
			"type":"VEC3"
		},
		{
			"bufferView":6,
			"componentType":5126,
			"count":2143,
			"type":"VEC2"
		},
		{
			"bufferView":7,
			"componentType":5123,
			"count":11904,
			"type":"SCALAR"
		}
	],
	"bufferViews":[
		{
			"buffer":0,
			"byteLength":288,
			"byteOffset":0,
			"target":34962
		},
		{
			"buffer":0,
			"byteLength":288,
			"byteOffset":288,
			"target":34962
		},
		{
			"buffer":0,
			"byteLength":192,
			"byteOffset":576,
			"target":34962
		},
		{
			"buffer":0,
			"byteLength":72,
			"byteOffset":768,
			"target":34963
		},
		{
			"buffer":0,
			"byteLength":25716,
			"byteOffset":840,
			"target":34962
		},
		{
			"buffer":0,
			"byteLength":25716,
			"byteOffset":26556,
			"target":34962
		},
		{
			"buffer":0,
			"byteLength":17144,
			"byteOffset":52272,
			"target":34962
		},
		{
			"buffer":0,
			"byteLength":23808,
			"byteOffset":69416,
			"target":34963
		}
	],
	"samplers":[
		{
			"magFilter":9729,
			"minFilter":9987
		}
	],
	"buffers":[
		{
			"byteLength":93224,
			"uri":"Cloud5.bin"
		}
	]
}
