{
	"asset":{
		"generator":"Khronos glTF Blender I/O v4.5.48",
		"version":"2.0"
	},
	"scene":0,
	"scenes":[
		{
			"name":"Scene",
			"nodes":[
				0,
				1,
				2,
				3
			]
		}
	],
	"nodes":[
		{
			"mesh":0,
			"name":"floor_Plane",
			"rotation":[
				0.7071068286895752,
				0,
				0,
				0.7071068286895752
			]
		},
		{
			"mesh":1,
			"name":"river_Plane.001",
			"rotation":[
				0.7071068286895752,
				0,
				0,
				0.7071068286895752
			]
		},
		{
			"mesh":2,
			"name":"smalltrees_Icosphere.016",
			"rotation":[
				0.7071068286895752,
				0,
				0,
				0.7071068286895752
			]
		},
		{
			"mesh":3,
			"name":"trees_Icosphere.045",
			"rotation":[
				0.7071068286895752,
				0,
				0,
				0.7071068286895752
			]
		}
	],
	"materials":[
		{
			"doubleSided":true,
			"name":"top",
			"pbrMetallicRoughness":{
				"baseColorFactor":[
					0.044449999928474426,
					0.7230550050735474,
					0.03152399882674217,
					1
				],
				"metallicFactor":0,
				"roughnessFactor":0.525658369064331
			}
		},
		{
			"doubleSided":true,
			"name":"lover",
			"pbrMetallicRoughness":{
				"baseColorFactor":[
					0.1901780068874359,
					0.1581760048866272,
					0.07945600152015686,
					1
				],
				"metallicFactor":0,
				"roughnessFactor":0.525658369064331
			}
		},
		{
			"doubleSided":true,
			"name":"Material.001",
			"pbrMetallicRoughness":{
				"baseColorFactor":[
					0.05212400108575821,
					0.12955200672149658,
					0.9113940000534058,
					1
				],
				"metallicFactor":0,
				"roughnessFactor":0.05131673812866211
			}
		},
		{
			"doubleSided":true,
			"name":"treegreen",
			"pbrMetallicRoughness":{
				"baseColorFactor":[
					0,
					0.15743400156497955,
					0,
					1
				],
				"metallicFactor":0,
				"roughnessFactor":0.525658369064331
			}
		},
		{
			"doubleSided":true,
			"name":"treebrown",
			"pbrMetallicRoughness":{
				"baseColorFactor":[
					0.03968000039458275,
					0.024910999462008476,
					0.016171999275684357,
					1
				],
				"metallicFactor":0,
				"roughnessFactor":0.525658369064331
			}
		}
	],
	"meshes":[
		{
			"name":"floor_Plane",
			"primitives":[
				{
					"attributes":{
						"POSITION":0,
						"NORMAL":1,
						"TEXCOORD_0":2
					},
					"indices":3,
					"material":0
				},
				{
					"attributes":{
						"POSITION":4,
						"NORMAL":5,
						"TEXCOORD_0":6
					},
					"indices":7,
					"material":1
				}
			]
		},
		{
			"name":"river_Plane.001",
			"primitives":[
				{
					"attributes":{
						"POSITION":8,
						"NORMAL":9,
						"TEXCOORD_0":10
					},
					"indices":11,
					"material":2
				}
			]
		},
		{
			"name":"smalltrees_Icosphere.016",
			"primitives":[
				{
					"attributes":{
						"POSITION":12,
						"NORMAL":13,
						"TEXCOORD_0":14
					},
					"indices":15,
					"material":3
				}
			]
		},
		{
			"name":"trees_Icosphere.045",
			"primitives":[
				{
					"attributes":{
						"POSITION":16,
						"NORMAL":17,
						"TEXCOORD_0":18
					},
					"indices":19,
					"material":3
				},
				{
					"attributes":{
						"POSITION":20,
						"NORMAL":21,
						"TEXCOORD_0":22
					},
					"indices":23,
					"material":4
				}
			]
		}
	],
	"accessors":[
		{
			"bufferView":0,
			"componentType":5126,
			"count":2609,
			"max":[
				5.007155895233154,
				14.929222106933594,
				1.145993947982788
			],
			"min":[
				-5.007155895233154,
				-14.964696884155273,
				0.745872974395752
			],
			"type":"VEC3"
		},
		{
			"bufferView":1,
			"componentType":5126,
			"count":2609,
			"type":"VEC3"
		},
		{
			"bufferView":2,
			"componentType":5126,
			"count":2609,
			"type":"VEC2"
		},
		{
			"bufferView":3,
			"componentType":5123,
			"count":7680,
			"type":"SCALAR"
		},
		{
			"bufferView":4,
			"componentType":5126,
			"count":8597,
			"max":[
				5.007155895233154,
				14.991463661193848,
				2.003593921661377
			],
			"min":[
				-5.007155895233154,
				-14.997237205505371,
				0.7618460059165955
			],
			"type":"VEC3"
		},
		{
			"bufferView":5,
			"componentType":5126,
			"count":8597,
			"type":"VEC3"
		},
		{
			"bufferView":6,
			"componentType":5126,
			"count":8597,
			"type":"VEC2"
		},
		{
			"bufferView":7,
			"componentType":5123,
			"count":23712,
			"type":"SCALAR"
		},
		{
			"bufferView":8,
			"componentType":5126,
			"count":464,
			"max":[
				1.3768390417099,
				15.030689239501953,
				0.947983980178833
			],
			"min":[
				-1.3768390417099,
				-15.030689239501953,
				0.8305230140686035
			],
			"type":"VEC3"
		},
		{
			"bufferView":9,
			"componentType":5126,
			"count":464,
			"type":"VEC3"
		},
		{
			"bufferView":10,
			"componentType":5126,
			"count":464,
			"type":"VEC2"
		},
		{
			"bufferView":11,
			"componentType":5123,
			"count":726,
			"type":"SCALAR"
		},
		{
			"bufferView":12,
			"componentType":5126,
			"count":5520,
			"max":[
				4.3956170082092285,
				12.4854097366333,
				0.9483739733695984
			],
			"min":[
				-3.547473907470703,
				-13.726561546325684,
				0.20666800439357758
			],
			"type":"VEC3"
		},
		{
			"bufferView":13,
			"componentType":5126,
			"count":5520,
			"type":"VEC3"
		},
		{
			"bufferView":14,
			"componentType":5126,
			"count":5520,
			"type":"VEC2"
		},
		{
			"bufferView":15,
			"componentType":5123,
			"count":8280,
			"type":"SCALAR"
		},
		{
			"bufferView":16,
			"componentType":5126,
			"count":6960,
			"max":[
				4.9159650802612305,
				14.314043045043945,
				0.20718400180339813
			],
			"min":[
				-4.740522861480713,
				-14.84980583190918,
				-4.080142021179199
			],
			"type":"VEC3"
		},
		{
			"bufferView":17,
			"componentType":5126,
			"count":6960,
			"type":"VEC3"
		},
		{
			"bufferView":18,
			"componentType":5126,
			"count":6960,
			"type":"VEC2"
		},
		{
			"bufferView":19,
			"componentType":5123,
			"count":10440,
			"type":"SCALAR"
		},
		{
			"bufferView":20,
			"componentType":5126,
			"count":68287,
			"max":[
				4.4520039558410645,
				13.739213943481445,
				0.9297119975090027
			],
			"min":[
				-4.3626790046691895,
				-14.483516693115234,
				-1.989696979522705
			],
			"type":"VEC3"
		},
		{
			"bufferView":21,
			"componentType":5126,
			"count":68287,
			"type":"VEC3"
		},
		{
			"bufferView":22,
			"componentType":5126,
			"count":68287,
			"type":"VEC2"
		},
		{
			"bufferView":23,
			"componentType":5125,
			"count":157248,
			"type":"SCALAR"
		}
	],
	"bufferViews":[
		{
			"buffer":0,
			"byteLength":31308,
			"byteOffset":0,
			"target":34962
		},
		{
			"buffer":0,
			"byteLength":31308,
			"byteOffset":31308,
			"target":34962
		},
		{
			"buffer":0,
			"byteLength":20872,
			"byteOffset":62616,
			"target":34962
		},
		{
			"buffer":0,
			"byteLength":15360,
			"byteOffset":83488,
			"target":34963
		},
		{
			"buffer":0,
			"byteLength":103164,
			"byteOffset":98848,
			"target":34962
		},
		{
			"buffer":0,
			"byteLength":103164,
			"byteOffset":202012,
			"target":34962
		},
		{
			"buffer":0,
			"byteLength":68776,
			"byteOffset":305176,
			"target":34962
		},
		{
			"buffer":0,
			"byteLength":47424,
			"byteOffset":373952,
			"target":34963
		},
		{
			"buffer":0,
			"byteLength":5568,
			"byteOffset":421376,
			"target":34962
		},
		{
			"buffer":0,
			"byteLength":5568,
			"byteOffset":426944,
			"target":34962
		},
		{
			"buffer":0,
			"byteLength":3712,
			"byteOffset":432512,
			"target":34962
		},
		{
			"buffer":0,
			"byteLength":1452,
			"byteOffset":436224,
			"target":34963
		},
		{
			"buffer":0,
			"byteLength":66240,
			"byteOffset":437676,
			"target":34962
		},
		{
			"buffer":0,
			"byteLength":66240,
			"byteOffset":503916,
			"target":34962
		},
		{
			"buffer":0,
			"byteLength":44160,
			"byteOffset":570156,
			"target":34962
		},
		{
			"buffer":0,
			"byteLength":16560,
			"byteOffset":614316,
			"target":34963
		},
		{
			"buffer":0,
			"byteLength":83520,
			"byteOffset":630876,
			"target":34962
		},
		{
			"buffer":0,
			"byteLength":83520,
			"byteOffset":714396,
			"target":34962
		},
		{
			"buffer":0,
			"byteLength":55680,
			"byteOffset":797916,
			"target":34962
		},
		{
			"buffer":0,
			"byteLength":20880,
			"byteOffset":853596,
			"target":34963
		},
		{
			"buffer":0,
			"byteLength":819444,
			"byteOffset":874476,
			"target":34962
		},
		{
			"buffer":0,
			"byteLength":819444,
			"byteOffset":1693920,
			"target":34962
		},
		{
			"buffer":0,
			"byteLength":546296,
			"byteOffset":2513364,
			"target":34962
		},
		{
			"buffer":0,
			"byteLength":628992,
			"byteOffset":3059660,
			"target":34963
		}
	],
	"buffers":[
		{
			"byteLength":3688652,
			"uri":"River.bin"
		}
	]
}
