{
	"asset":{
		"generator":"Khronos glTF Blender I/O v4.5.48",
		"version":"2.0"
	},
	"scene":0,
	"scenes":[
		{
			"name":"Scene",
			"nodes":[
				0,
				1,
				2
			]
		}
	],
	"nodes":[
		{
			"mesh":0,
			"name":"Circle.002_Material.008_0",
			"rotation":[
				-0.494080126285553,
				0.5058506727218628,
				0.5058506727218628,
				0.4940800666809082
			],
			"scale":[
				0.6031498312950134,
				0.6031498908996582,
				0.6031498312950134
			],
			"translation":[
				0,
				0,
				8.24100112915039
			]
		},
		{
			"mesh":1,
			"name":"Circle.002_Material.009_0",
			"rotation":[
				-0.494080126285553,
				0.5058506727218628,
				0.5058506727218628,
				0.4940800666809082
			],
			"scale":[
				0.6031498312950134,
				0.6031498908996582,
				0.6031498312950134
			],
			"translation":[
				0,
				0,
				8.24100112915039
			]
		},
		{
			"mesh":2,
			"name":"Circle.002_Material.010_0",
			"rotation":[
				-0.494080126285553,
				0.5058506727218628,
				0.5058506727218628,
				0.4940800666809082
			],
			"scale":[
				0.6031498312950134,
				0.6031498908996582,
				0.6031498312950134
			],
			"translation":[
				0,
				0,
				8.24100112915039
			]
		}
	],
	"materials":[
		{
			"doubleSided":true,
			"name":"Material.008",
			"pbrMetallicRoughness":{
				"baseColorFactor":[
					0.304980993270874,
					0.21316400170326233,
					0.037811700254678726,
					1
				],
				"metallicFactor":0,
				"roughnessFactor":0.9508011937141418
			}
		},
		{
			"doubleSided":true,
			"name":"Material.009",
			"pbrMetallicRoughness":{
				"baseColorFactor":[
					0.03760160133242607,
					0.030481599271297455,
					0.0059599000960588455,
					1
				],
				"metallicFactor":0,
				"roughnessFactor":0.993241548538208
			}
		},
		{
			"doubleSided":true,
			"name":"Material.010",
			"pbrMetallicRoughness":{
				"baseColorFactor":[
					0.12630699574947357,
					0.3493260145187378,
					0.03311749920248985,
					1
				],
				"metallicFactor":0,
				"roughnessFactor":0.9375953674316406
			}
		}
	],
	"meshes":[
		{
			"name":"Circle.002_Material.008_0",
			"primitives":[
				{
					"attributes":{
						"POSITION":0,
						"NORMAL":1,
						"TEXCOORD_0":2
					},
					"indices":3,
					"material":0
				}
			]
		},
		{
			"name":"Circle.002_Material.009_0",
			"primitives":[
				{
					"attributes":{
						"POSITION":4,
						"NORMAL":5,
						"TEXCOORD_0":6
					},
					"indices":7,
					"material":1
				}
			]
		},
		{
			"name":"Circle.002_Material.010_0",
			"primitives":[
				{
					"attributes":{
						"POSITION":8,
						"NORMAL":9,
						"TEXCOORD_0":10
					},
					"indices":11,
					"material":2
				}
			]
		}
	],
	"accessors":[
		{
			"bufferView":0,
			"componentType":5126,
			"count":1268,
			"max":[
				3.177507162094116,
				3.5141801834106445,
				14.388872146606445
			],
			"min":[
				-3.177506685256958,
				-3.2519450187683105,
				-0.028062820434570312
			],
			"type":"VEC3"
		},
		{
			"bufferView":1,
			"componentType":5126,
			"count":1268,
			"type":"VEC3"
		},
		{
			"bufferView":2,
			"componentType":5126,
			"count":1268,
			"type":"VEC2"
		},
		{
			"bufferView":3,
			"componentType":5123,
			"count":1788,
			"type":"SCALAR"
		},
		{
			"bufferView":4,
			"componentType":5126,
			"count":1743,
			"max":[
				2.1185028553009033,
				2.310269355773926,
				14.522072792053223
			],
			"min":[
				-2.118502140045166,
				-3.5393307209014893,
				0.5838642120361328
			],
			"type":"VEC3"
		},
		{
			"bufferView":5,
			"componentType":5126,
			"count":1743,
			"type":"VEC3"
		},
		{
			"bufferView":6,
			"componentType":5126,
			"count":1743,
			"type":"VEC2"
		},
		{
			"bufferView":7,
			"componentType":5123,
			"count":2424,
			"type":"SCALAR"
		},
		{
			"bufferView":8,
			"componentType":5126,
			"count":416,
			"max":[
				6.553544044494629,
				2.0098376274108887,
				16.384546279907227
			],
			"min":[
				-4.405158042907715,
				-7.487515926361084,
				10.169008255004883
			],
			"type":"VEC3"
		},
		{
			"bufferView":9,
			"componentType":5126,
			"count":416,
			"type":"VEC3"
		},
		{
			"bufferView":10,
			"componentType":5126,
			"count":416,
			"type":"VEC2"
		},
		{
			"bufferView":11,
			"componentType":5123,
			"count":576,
			"type":"SCALAR"
		}
	],
	"bufferViews":[
		{
			"buffer":0,
			"byteLength":15216,
			"byteOffset":0,
			"target":34962
		},
		{
			"buffer":0,
			"byteLength":15216,
			"byteOffset":15216,
			"target":34962
		},
		{
			"buffer":0,
			"byteLength":10144,
			"byteOffset":30432,
			"target":34962
		},
		{
			"buffer":0,
			"byteLength":3576,
			"byteOffset":40576,
			"target":34963
		},
		{
			"buffer":0,
			"byteLength":20916,
			"byteOffset":44152,
			"target":34962
		},
		{
			"buffer":0,
			"byteLength":20916,
			"byteOffset":65068,
			"target":34962
		},
		{
			"buffer":0,
			"byteLength":13944,
			"byteOffset":85984,
			"target":34962
		},
		{
			"buffer":0,
			"byteLength":4848,
			"byteOffset":99928,
			"target":34963
		},
		{
			"buffer":0,
			"byteLength":4992,
			"byteOffset":104776,
			"target":34962
		},
		{
			"buffer":0,
			"byteLength":4992,
			"byteOffset":109768,
			"target":34962
		},
		{
			"buffer":0,
			"byteLength":3328,
			"byteOffset":114760,
			"target":34962
		},
		{
			"buffer":0,
			"byteLength":1152,
			"byteOffset":118088,
			"target":34963
		}
	],
	"buffers":[
		{
			"byteLength":119240,
			"uri":"tree_5.bin"
		}
	]
}
