{
	"asset":{
		"generator":"Khronos glTF Blender I/O v4.5.48",
		"version":"2.0"
	},
	"scene":0,
	"scenes":[
		{
			"name":"Scene",
			"nodes":[
				0
			]
		}
	],
	"nodes":[
		{
			"mesh":0,
			"name":"Circle.006_Material.016_0",
			"rotation":[
				-0.5000001192092896,
				0.49999988079071045,
				0.5000001192092896,
				0.49999985098838806
			],
			"scale":[
				0.9815239906311035,
				0.9815241098403931,
				0.9815241098403931
			],
			"translation":[
				0,
				0,
				-16.11302947998047
			]
		}
	],
	"materials":[
		{
			"doubleSided":true,
			"name":"Material.016",
			"pbrMetallicRoughness":{
				"baseColorFactor":[
					0.08115120232105255,
					0.04599250108003616,
					0.007861260324716568,
					1
				],
				"metallicFactor":0,
				"roughnessFactor":0.9886599779129028
			}
		}
	],
	"meshes":[
		{
			"name":"Circle.006_Material.016_0",
			"primitives":[
				{
					"attributes":{
						"POSITION":0,
						"NORMAL":1,
						"TEXCOORD_0":2
					},
					"indices":3,
					"material":0
				}
			]
		}
	],
	"accessors":[
		{
			"bufferView":0,
			"componentType":5126,
			"count":8062,
			"max":[
				4.965473651885986,
				3.610751152038574,
				9.666749954223633
			],
			"min":[
				-2.550569534301758,
				-3.2511210441589355,
				-0.17902594804763794
			],
			"type":"VEC3"
		},
		{
			"bufferView":1,
			"componentType":5126,
			"count":8062,
			"type":"VEC3"
		},
		{
			"bufferView":2,
			"componentType":5126,
			"count":8062,
			"type":"VEC2"
		},
		{
			"bufferView":3,
			"componentType":5123,
			"count":11826,
			"type":"SCALAR"
		}
	],
	"bufferViews":[
		{
			"buffer":0,
			"byteLength":96744,
			"byteOffset":0,
			"target":34962
		},
		{
			"buffer":0,
			"byteLength":96744,
			"byteOffset":96744,
			"target":34962
		},
		{
			"buffer":0,
			"byteLength":64496,
			"byteOffset":193488,
			"target":34962
		},
		{
			"buffer":0,
			"byteLength":23652,
			"byteOffset":257984,
			"target":34963
		}
	],
	"buffers":[
		{
			"byteLength":281636,
			"uri":"tree_8.bin"
		}
	]
}
