{
	"asset":{
		"generator":"Khronos glTF Blender I/O v4.5.48",
		"version":"2.0"
	},
	"scene":0,
	"scenes":[
		{
			"name":"Scene",
			"nodes":[
				6
			]
		}
	],
	"nodes":[
		{
			"mesh":0,
			"name":"Cylinder_Material.001_0"
		},
		{
			"mesh":1,
			"name":"Cylinder_Material.002_0"
		},
		{
			"children":[
				0,
				1
			],
			"name":"Cylinder",
			"rotation":[
				-0.70710688829422,
				0,
				0,
				0.7071066498756409
			],
			"scale":[
				16.54400634765625,
				16.544004440307617,
				16.544004440307617
			]
		},
		{
			"mesh":2,
			"name":"Sphere_Material.003_0",
			"rotation":[
				-0.7071070075035095,
				0,
				0,
				0.7071065902709961
			],
			"scale":[
				108.71826171875,
				108.71826171875,
				101.0616455078125
			],
			"translation":[
				-1.67543363571167,
				-113.373779296875,
				-0.8702266216278076
			]
		},
		{
			"children":[
				2,
				3
			],
			"name":"RootNode"
		},
		{
			"children":[
				4
			],
			"name":"5fb3ed632499487ea8848b033b84f0f1.fbx",
			"rotation":[
				0.70710688829422,
				0,
				0,
				0.7071066498756409
			],
			"scale":[
				0.009999999776482582,
				0.010000001639127731,
				0.010000001639127731
			]
		},
		{
			"children":[
				5
			],
			"name":"Sketchfab_model",
			"rotation":[
				-0.70710688829422,
				0,
				0,
				0.7071066498756409
			],
			"scale":[
				100,
				100.00001525878906,
				100.00001525878906
			]
		}
	],
	"materials":[
		{
			"doubleSided":true,
			"name":"Material.005",
			"pbrMetallicRoughness":{
				"baseColorTexture":{
					"index":0
				},
				"metallicFactor":0.17803506553173065,
				"roughnessFactor":0.9890686869621277
			}
		},
		{
			"doubleSided":true,
			"name":"Material.006",
			"pbrMetallicRoughness":{
				"baseColorTexture":{
					"index":1
				},
				"metallicFactor":0,
				"roughnessFactor":0.8211145401000977
			}
		},
		{
			"doubleSided":true,
			"name":"Material.007",
			"pbrMetallicRoughness":{
				"baseColorTexture":{
					"index":2
				},
				"metallicFactor":0,
				"roughnessFactor":0.8211145401000977
			}
		}
	],
	"meshes":[
		{
			"name":"Cylinder_Material.001_0",
			"primitives":[
				{
					"attributes":{
						"POSITION":0,
						"NORMAL":1,
						"TEXCOORD_0":2
					},
					"indices":3,
					"material":0
				}
			]
		},
		{
			"name":"Cylinder_Material.002_0",
			"primitives":[
				{
					"attributes":{
						"POSITION":4,
						"NORMAL":5,
						"TEXCOORD_0":6
					},
					"indices":7,
					"material":1
				}
			]
		},
		{
			"name":"Sphere_Material.003_0",
			"primitives":[
				{
					"attributes":{
						"POSITION":8,
						"NORMAL":9,
						"TEXCOORD_0":10
					},
					"indices":11,
					"material":2
				}
			]
		}
	],
	"textures":[
		{
			"sampler":0,
			"source":0
		},
		{
			"sampler":0,
			"source":0
		},
		{
			"sampler":0,
			"source":1
		}
	],
	"images":[
		{
			"mimeType":"image/png",
			"name":"Image_0",
			"uri":"Image_0.png"
		},
		{
			"mimeType":"image/png",
			"name":"Image_1",
			"uri":"Image_1.png"
		}
	],
	"accessors":[
		{
			"bufferView":0,
			"componentType":5126,
			"count":451,
			"max":[
				1.6345967054367065,
				0.9978216290473938,
				5.300164222717285
			],
			"min":[
				-1.6133720874786377,
				-1.3084369897842407,
				-0.9966065287590027
			],
			"type":"VEC3"
		},
		{
			"bufferView":1,
			"componentType":5126,
			"count":451,
			"type":"VEC3"
		},
		{
			"bufferView":2,
			"componentType":5126,
			"count":451,
			"type":"VEC2"
		},
		{
			"bufferView":3,
			"componentType":5123,
			"count":792,
			"type":"SCALAR"
		},
		{
			"bufferView":4,
			"componentType":5126,
			"count":1114,
			"max":[
				4.406102657318115,
				4.316549301147461,
				19.67499542236328
			],
			"min":[
				-3.8044629096984863,
				-4.316550254821777,
				4.585522174835205
			],
			"type":"VEC3"
		},
		{
			"bufferView":5,
			"componentType":5126,
			"count":1114,
			"type":"VEC3"
		},
		{
			"bufferView":6,
			"componentType":5126,
			"count":1114,
			"type":"VEC2"
		},
		{
			"bufferView":7,
			"componentType":5123,
			"count":1941,
			"type":"SCALAR"
		},
		{
			"bufferView":8,
			"componentType":5126,
			"count":225,
			"max":[
				0.9807851314544678,
				0.9807852506637573,
				1
			],
			"min":[
				-0.9807847738265991,
				-0.9807849526405334,
				0.19509035348892212
			],
			"type":"VEC3"
		},
		{
			"bufferView":9,
			"componentType":5126,
			"count":225,
			"type":"VEC3"
		},
		{
			"bufferView":10,
			"componentType":5126,
			"count":225,
			"type":"VEC2"
		},
		{
			"bufferView":11,
			"componentType":5123,
			"count":1248,
			"type":"SCALAR"
		}
	],
	"bufferViews":[
		{
			"buffer":0,
			"byteLength":5412,
			"byteOffset":0,
			"target":34962
		},
		{
			"buffer":0,
			"byteLength":5412,
			"byteOffset":5412,
			"target":34962
		},
		{
			"buffer":0,
			"byteLength":3608,
			"byteOffset":10824,
			"target":34962
		},
		{
			"buffer":0,
			"byteLength":1584,
			"byteOffset":14432,
			"target":34963
		},
		{
			"buffer":0,
			"byteLength":13368,
			"byteOffset":16016,
			"target":34962
		},
		{
			"buffer":0,
			"byteLength":13368,
			"byteOffset":29384,
			"target":34962
		},
		{
			"buffer":0,
			"byteLength":8912,
			"byteOffset":42752,
			"target":34962
		},
		{
			"buffer":0,
			"byteLength":3882,
			"byteOffset":51664,
			"target":34963
		},
		{
			"buffer":0,
			"byteLength":2700,
			"byteOffset":55548,
			"target":34962
		},
		{
			"buffer":0,
			"byteLength":2700,
			"byteOffset":58248,
			"target":34962
		},
		{
			"buffer":0,
			"byteLength":1800,
			"byteOffset":60948,
			"target":34962
		},
		{
			"buffer":0,
			"byteLength":2496,
			"byteOffset":62748,
			"target":34963
		}
	],
	"samplers":[
		{
			"magFilter":9729,
			"minFilter":9987
		}
	],
	"buffers":[
		{
			"byteLength":65244,
			"uri":"tree_2.bin"
		}
	]
}
