{
	"asset":{
		"generator":"Khronos glTF Blender I/O v4.5.48",
		"version":"2.0"
	},
	"scene":0,
	"scenes":[
		{
			"name":"Scene",
			"nodes":[
				0,
				1,
				2
			]
		}
	],
	"nodes":[
		{
			"mesh":0,
			"name":"Lowpoly_Tree_02_Material.001_0",
			"scale":[
				0.009999999776482582,
				0.010000001639127731,
				0.010000001639127731
			],
			"translation":[
				1.5999999046325684,
				0,
				-3.000000476837158
			]
		},
		{
			"mesh":1,
			"name":"Lowpoly_Tree_02_Material.002_0",
			"scale":[
				0.009999999776482582,
				0.010000001639127731,
				0.010000001639127731
			],
			"translation":[
				1.5999999046325684,
				0,
				-3.000000476837158
			]
		},
		{
			"mesh":2,
			"name":"Lowpoly_Tree_02_Material_0",
			"scale":[
				0.009999999776482582,
				0.010000001639127731,
				0.010000001639127731
			],
			"translation":[
				1.5999999046325684,
				0,
				-3.000000476837158
			]
		}
	],
	"materials":[
		{
			"doubleSided":true,
			"name":"Material.001",
			"pbrMetallicRoughness":{
				"baseColorFactor":[
					0.21370598673820496,
					0.5313625335693359,
					0.0823298916220665,
					1
				],
				"metallicFactor":0
			}
		},
		{
			"doubleSided":true,
			"name":"Material.002",
			"pbrMetallicRoughness":{
				"baseColorFactor":[
					0.06244755536317825,
					0.41474413871765137,
					0.05897630378603935,
					1
				],
				"metallicFactor":0,
				"roughnessFactor":0.9350433945655823
			}
		},
		{
			"doubleSided":true,
			"name":"Material.003",
			"pbrMetallicRoughness":{
				"baseColorFactor":[
					0.44545453786849976,
					0.17394544184207916,
					0.038472261279821396,
					1
				],
				"metallicFactor":0,
				"roughnessFactor":0.971206784248352
			}
		}
	],
	"meshes":[
		{
			"name":"Lowpoly_Tree_02_Material.001_0",
			"primitives":[
				{
					"attributes":{
						"POSITION":0,
						"NORMAL":1,
						"TEXCOORD_0":2
					},
					"indices":3,
					"material":0
				}
			]
		},
		{
			"name":"Lowpoly_Tree_02_Material.002_0",
			"primitives":[
				{
					"attributes":{
						"POSITION":4,
						"NORMAL":5,
						"TEXCOORD_0":6
					},
					"indices":7,
					"material":1
				}
			]
		},
		{
			"name":"Lowpoly_Tree_02_Material_0",
			"primitives":[
				{
					"attributes":{
						"POSITION":8,
						"NORMAL":9,
						"TEXCOORD_0":10
					},
					"indices":11,
					"material":2
				}
			]
		}
	],
	"accessors":[
		{
			"bufferView":0,
			"componentType":5126,
			"count":192,
			"max":[
				55.77393341064453,
				117.06871032714844,
				43.09285354614258
			],
			"min":[
				-39.22420883178711,
				78.78858184814453,
				1.1536076068878174
			],
			"type":"VEC3"
		},
		{
			"bufferView":1,
			"componentType":5126,
			"count":192,
			"type":"VEC3"
		},
		{
			"bufferView":2,
			"componentType":5126,
			"count":192,
			"type":"VEC2"
		},
		{
			"bufferView":3,
			"componentType":5123,
			"count":192,
			"type":"SCALAR"
		},
		{
			"bufferView":4,
			"componentType":5126,
			"count":408,
			"max":[
				48.400760650634766,
				155.25723266601562,
				64.931640625
			],
			"min":[
				-44.37861251831055,
				70.94917297363281,
				-57.71744155883789
			],
			"type":"VEC3"
		},
		{
			"bufferView":5,
			"componentType":5126,
			"count":408,
			"type":"VEC3"
		},
		{
			"bufferView":6,
			"componentType":5126,
			"count":408,
			"type":"VEC2"
		},
		{
			"bufferView":7,
			"componentType":5123,
			"count":408,
			"type":"SCALAR"
		},
		{
			"bufferView":8,
			"componentType":5126,
			"count":941,
			"max":[
				38.38806915283203,
				101.1455307006836,
				49.52778244018555
			],
			"min":[
				-29.282564163208008,
				0,
				-25.547874450683594
			],
			"type":"VEC3"
		},
		{
			"bufferView":9,
			"componentType":5126,
			"count":941,
			"type":"VEC3"
		},
		{
			"bufferView":10,
			"componentType":5126,
			"count":941,
			"type":"VEC2"
		},
		{
			"bufferView":11,
			"componentType":5123,
			"count":1062,
			"type":"SCALAR"
		}
	],
	"bufferViews":[
		{
			"buffer":0,
			"byteLength":2304,
			"byteOffset":0,
			"target":34962
		},
		{
			"buffer":0,
			"byteLength":2304,
			"byteOffset":2304,
			"target":34962
		},
		{
			"buffer":0,
			"byteLength":1536,
			"byteOffset":4608,
			"target":34962
		},
		{
			"buffer":0,
			"byteLength":384,
			"byteOffset":6144,
			"target":34963
		},
		{
			"buffer":0,
			"byteLength":4896,
			"byteOffset":6528,
			"target":34962
		},
		{
			"buffer":0,
			"byteLength":4896,
			"byteOffset":11424,
			"target":34962
		},
		{
			"buffer":0,
			"byteLength":3264,
			"byteOffset":16320,
			"target":34962
		},
		{
			"buffer":0,
			"byteLength":816,
			"byteOffset":19584,
			"target":34963
		},
		{
			"buffer":0,
			"byteLength":11292,
			"byteOffset":20400,
			"target":34962
		},
		{
			"buffer":0,
			"byteLength":11292,
			"byteOffset":31692,
			"target":34962
		},
		{
			"buffer":0,
			"byteLength":7528,
			"byteOffset":42984,
			"target":34962
		},
		{
			"buffer":0,
			"byteLength":2124,
			"byteOffset":50512,
			"target":34963
		}
	],
	"buffers":[
		{
			"byteLength":52636,
			"uri":"tree_10.bin"
		}
	]
}
