{
	"asset":{
		"generator":"Khronos glTF Blender I/O v4.5.48",
		"version":"2.0"
	},
	"scene":0,
	"scenes":[
		{
			"name":"Scene",
			"nodes":[
				0,
				1
			]
		}
	],
	"nodes":[
		{
			"mesh":0,
			"name":"Lowpoly_Tree_08_Material.004_0",
			"scale":[
				0.009999999776482582,
				0.010000001639127731,
				0.010000001639127731
			]
		},
		{
			"mesh":1,
			"name":"Lowpoly_Tree_08_Material_0",
			"scale":[
				0.009999999776482582,
				0.010000001639127731,
				0.010000001639127731
			]
		}
	],
	"materials":[
		{
			"doubleSided":true,
			"name":"Material.005",
			"pbrMetallicRoughness":{
				"baseColorFactor":[
					0.2954467236995697,
					0.45809823274612427,
					0.023511327803134918,
					1
				],
				"metallicFactor":0,
				"roughnessFactor":0.8923612833023071
			}
		},
		{
			"doubleSided":true,
			"name":"Material.003",
			"pbrMetallicRoughness":{
				"baseColorFactor":[
					0.44545453786849976,
					0.17394544184207916,
					0.038472261279821396,
					1
				],
				"metallicFactor":0,
				"roughnessFactor":0.971206784248352
			}
		}
	],
	"meshes":[
		{
			"name":"Lowpoly_Tree_08_Material.004_0",
			"primitives":[
				{
					"attributes":{
						"POSITION":0,
						"NORMAL":1,
						"TEXCOORD_0":2
					},
					"indices":3,
					"material":0
				}
			]
		},
		{
			"name":"Lowpoly_Tree_08_Material_0",
			"primitives":[
				{
					"attributes":{
						"POSITION":4,
						"NORMAL":5,
						"TEXCOORD_0":6
					},
					"indices":7,
					"material":1
				}
			]
		}
	],
	"accessors":[
		{
			"bufferView":0,
			"componentType":5126,
			"count":3074,
			"max":[
				50.29573440551758,
				194.1342315673828,
				48.031524658203125
			],
			"min":[
				-48.22661209106445,
				34.04522705078125,
				-49.257598876953125
			],
			"type":"VEC3"
		},
		{
			"bufferView":1,
			"componentType":5126,
			"count":3074,
			"type":"VEC3"
		},
		{
			"bufferView":2,
			"componentType":5126,
			"count":3074,
			"type":"VEC2"
		},
		{
			"bufferView":3,
			"componentType":5123,
			"count":3258,
			"type":"SCALAR"
		},
		{
			"bufferView":4,
			"componentType":5126,
			"count":113,
			"max":[
				12.511162757873535,
				79.26337432861328,
				12.40565013885498
			],
			"min":[
				-12.344959259033203,
				-1.4901161193847656e-06,
				-11.662851333618164
			],
			"type":"VEC3"
		},
		{
			"bufferView":5,
			"componentType":5126,
			"count":113,
			"type":"VEC3"
		},
		{
			"bufferView":6,
			"componentType":5126,
			"count":113,
			"type":"VEC2"
		},
		{
			"bufferView":7,
			"componentType":5123,
			"count":135,
			"type":"SCALAR"
		}
	],
	"bufferViews":[
		{
			"buffer":0,
			"byteLength":36888,
			"byteOffset":0,
			"target":34962
		},
		{
			"buffer":0,
			"byteLength":36888,
			"byteOffset":36888,
			"target":34962
		},
		{
			"buffer":0,
			"byteLength":24592,
			"byteOffset":73776,
			"target":34962
		},
		{
			"buffer":0,
			"byteLength":6516,
			"byteOffset":98368,
			"target":34963
		},
		{
			"buffer":0,
			"byteLength":1356,
			"byteOffset":104884,
			"target":34962
		},
		{
			"buffer":0,
			"byteLength":1356,
			"byteOffset":106240,
			"target":34962
		},
		{
			"buffer":0,
			"byteLength":904,
			"byteOffset":107596,
			"target":34962
		},
		{
			"buffer":0,
			"byteLength":270,
			"byteOffset":108500,
			"target":34963
		}
	],
	"buffers":[
		{
			"byteLength":108772,
			"uri":"tree_17.bin"
		}
	]
}
