{
	"asset":{
		"generator":"Khronos glTF Blender I/O v4.5.48",
		"version":"2.0"
	},
	"scene":0,
	"scenes":[
		{
			"name":"Scene",
			"nodes":[
				0,
				1,
				2
			]
		}
	],
	"nodes":[
		{
			"mesh":0,
			"name":"Lowpoly_Tree_04_Material.002_0",
			"scale":[
				0.009999999776482582,
				0.010000001639127731,
				0.010000001639127731
			],
			"translation":[
				-1.5999999046325684,
				0,
				-1.4000002145767212
			]
		},
		{
			"mesh":1,
			"name":"Lowpoly_Tree_04_Material.003_0",
			"scale":[
				0.009999999776482582,
				0.010000001639127731,
				0.010000001639127731
			],
			"translation":[
				-1.5999999046325684,
				0,
				-1.4000002145767212
			]
		},
		{
			"mesh":2,
			"name":"Lowpoly_Tree_04_Material_0",
			"scale":[
				0.009999999776482582,
				0.010000001639127731,
				0.010000001639127731
			],
			"translation":[
				-1.5999999046325684,
				0,
				-1.4000002145767212
			]
		}
	],
	"materials":[
		{
			"doubleSided":true,
			"name":"Material.002",
			"pbrMetallicRoughness":{
				"baseColorFactor":[
					0.06244755536317825,
					0.41474413871765137,
					0.05897630378603935,
					1
				],
				"metallicFactor":0,
				"roughnessFactor":0.9350433945655823
			}
		},
		{
			"doubleSided":true,
			"name":"Material.004",
			"pbrMetallicRoughness":{
				"baseColorFactor":[
					0.5277190208435059,
					0.0012371200136840343,
					0,
					1
				],
				"metallicFactor":0,
				"roughnessFactor":0.9747150540351868
			}
		},
		{
			"doubleSided":true,
			"name":"Material.003",
			"pbrMetallicRoughness":{
				"baseColorFactor":[
					0.44545453786849976,
					0.17394544184207916,
					0.038472261279821396,
					1
				],
				"metallicFactor":0,
				"roughnessFactor":0.971206784248352
			}
		}
	],
	"meshes":[
		{
			"name":"Lowpoly_Tree_04_Material.002_0",
			"primitives":[
				{
					"attributes":{
						"POSITION":0,
						"NORMAL":1,
						"TEXCOORD_0":2
					},
					"indices":3,
					"material":0
				}
			]
		},
		{
			"name":"Lowpoly_Tree_04_Material.003_0",
			"primitives":[
				{
					"attributes":{
						"POSITION":4,
						"NORMAL":5,
						"TEXCOORD_0":6
					},
					"indices":7,
					"material":1
				}
			]
		},
		{
			"name":"Lowpoly_Tree_04_Material_0",
			"primitives":[
				{
					"attributes":{
						"POSITION":8,
						"NORMAL":9,
						"TEXCOORD_0":10
					},
					"indices":11,
					"material":2
				}
			]
		}
	],
	"accessors":[
		{
			"bufferView":0,
			"componentType":5126,
			"count":198,
			"max":[
				48.6393928527832,
				138.8140411376953,
				38.221614837646484
			],
			"min":[
				-37.899723052978516,
				82.88967895507812,
				-35.21196365356445
			],
			"type":"VEC3"
		},
		{
			"bufferView":1,
			"componentType":5126,
			"count":198,
			"type":"VEC3"
		},
		{
			"bufferView":2,
			"componentType":5126,
			"count":198,
			"type":"VEC2"
		},
		{
			"bufferView":3,
			"componentType":5123,
			"count":198,
			"type":"SCALAR"
		},
		{
			"bufferView":4,
			"componentType":5126,
			"count":720,
			"max":[
				46.50170135498047,
				106.40840148925781,
				32.249916076660156
			],
			"min":[
				-40.34961700439453,
				79.76342010498047,
				-29.728740692138672
			],
			"type":"VEC3"
		},
		{
			"bufferView":5,
			"componentType":5126,
			"count":720,
			"type":"VEC3"
		},
		{
			"bufferView":6,
			"componentType":5126,
			"count":720,
			"type":"VEC2"
		},
		{
			"bufferView":7,
			"componentType":5123,
			"count":720,
			"type":"SCALAR"
		},
		{
			"bufferView":8,
			"componentType":5126,
			"count":330,
			"max":[
				27.13426971435547,
				96.13174438476562,
				11.755415916442871
			],
			"min":[
				-25.31096649169922,
				-1.862645149230957e-07,
				-19.629974365234375
			],
			"type":"VEC3"
		},
		{
			"bufferView":9,
			"componentType":5126,
			"count":330,
			"type":"VEC3"
		},
		{
			"bufferView":10,
			"componentType":5126,
			"count":330,
			"type":"VEC2"
		},
		{
			"bufferView":11,
			"componentType":5123,
			"count":354,
			"type":"SCALAR"
		}
	],
	"bufferViews":[
		{
			"buffer":0,
			"byteLength":2376,
			"byteOffset":0,
			"target":34962
		},
		{
			"buffer":0,
			"byteLength":2376,
			"byteOffset":2376,
			"target":34962
		},
		{
			"buffer":0,
			"byteLength":1584,
			"byteOffset":4752,
			"target":34962
		},
		{
			"buffer":0,
			"byteLength":396,
			"byteOffset":6336,
			"target":34963
		},
		{
			"buffer":0,
			"byteLength":8640,
			"byteOffset":6732,
			"target":34962
		},
		{
			"buffer":0,
			"byteLength":8640,
			"byteOffset":15372,
			"target":34962
		},
		{
			"buffer":0,
			"byteLength":5760,
			"byteOffset":24012,
			"target":34962
		},
		{
			"buffer":0,
			"byteLength":1440,
			"byteOffset":29772,
			"target":34963
		},
		{
			"buffer":0,
			"byteLength":3960,
			"byteOffset":31212,
			"target":34962
		},
		{
			"buffer":0,
			"byteLength":3960,
			"byteOffset":35172,
			"target":34962
		},
		{
			"buffer":0,
			"byteLength":2640,
			"byteOffset":39132,
			"target":34962
		},
		{
			"buffer":0,
			"byteLength":708,
			"byteOffset":41772,
			"target":34963
		}
	],
	"buffers":[
		{
			"byteLength":42480,
			"uri":"tree_12.bin"
		}
	]
}
