{
	"asset":{
		"generator":"Khronos glTF Blender I/O v4.5.48",
		"version":"2.0"
	},
	"scene":0,
	"scenes":[
		{
			"name":"Scene",
			"nodes":[
				0,
				1
			]
		}
	],
	"nodes":[
		{
			"mesh":0,
			"name":"Circle.001_Material.005_0",
			"rotation":[
				-0.5000001192092896,
				0.4999999403953552,
				0.5000000596046448,
				0.4999999403953552
			],
			"scale":[
				1.975010633468628,
				1.9750107526779175,
				1.9750107526779175
			],
			"translation":[
				0,
				0.03885956481099129,
				0.07144089043140411
			]
		},
		{
			"mesh":1,
			"name":"Circle.001_Material.006_0",
			"rotation":[
				-0.5000001192092896,
				0.4999999403953552,
				0.5000000596046448,
				0.4999999403953552
			],
			"scale":[
				1.975010633468628,
				1.9750107526779175,
				1.9750107526779175
			],
			"translation":[
				0,
				0.03885956481099129,
				0.07144089043140411
			]
		}
	],
	"materials":[
		{
			"doubleSided":true,
			"name":"Material.005",
			"pbrMetallicRoughness":{
				"baseColorFactor":[
					0.5983949899673462,
					0.3216640055179596,
					0.04238399863243103,
					1
				],
				"metallicFactor":0,
				"roughnessFactor":0.9194270968437195
			}
		},
		{
			"doubleSided":true,
			"name":"Material.006",
			"pbrMetallicRoughness":{
				"baseColorFactor":[
					0.10574900358915329,
					0.2870430052280426,
					0.01269069965928793,
					1
				],
				"metallicFactor":0,
				"roughnessFactor":0.9488629698753357
			}
		}
	],
	"meshes":[
		{
			"name":"Circle.001_Material.005_0",
			"primitives":[
				{
					"attributes":{
						"POSITION":0,
						"NORMAL":1,
						"TEXCOORD_0":2
					},
					"indices":3,
					"material":0
				}
			]
		},
		{
			"name":"Circle.001_Material.006_0",
			"primitives":[
				{
					"attributes":{
						"POSITION":4,
						"NORMAL":5,
						"TEXCOORD_0":6
					},
					"indices":7,
					"material":1
				}
			]
		}
	],
	"accessors":[
		{
			"bufferView":0,
			"componentType":5126,
			"count":104,
			"max":[
				0.577073335647583,
				0.5770730972290039,
				1.5526663064956665
			],
			"min":[
				-0.577073335647583,
				-0.5770735740661621,
				-0.01502835750579834
			],
			"type":"VEC3"
		},
		{
			"bufferView":1,
			"componentType":5126,
			"count":104,
			"type":"VEC3"
		},
		{
			"bufferView":2,
			"componentType":5126,
			"count":104,
			"type":"VEC2"
		},
		{
			"bufferView":3,
			"componentType":5123,
			"count":162,
			"type":"SCALAR"
		},
		{
			"bufferView":4,
			"componentType":5126,
			"count":248,
			"max":[
				1.3152227401733398,
				1.1533540487289429,
				4.993669509887695
			],
			"min":[
				-1.2567247152328491,
				-1.2038811445236206,
				1.3562963008880615
			],
			"type":"VEC3"
		},
		{
			"bufferView":5,
			"componentType":5126,
			"count":248,
			"type":"VEC3"
		},
		{
			"bufferView":6,
			"componentType":5126,
			"count":248,
			"type":"VEC2"
		},
		{
			"bufferView":7,
			"componentType":5123,
			"count":360,
			"type":"SCALAR"
		}
	],
	"bufferViews":[
		{
			"buffer":0,
			"byteLength":1248,
			"byteOffset":0,
			"target":34962
		},
		{
			"buffer":0,
			"byteLength":1248,
			"byteOffset":1248,
			"target":34962
		},
		{
			"buffer":0,
			"byteLength":832,
			"byteOffset":2496,
			"target":34962
		},
		{
			"buffer":0,
			"byteLength":324,
			"byteOffset":3328,
			"target":34963
		},
		{
			"buffer":0,
			"byteLength":2976,
			"byteOffset":3652,
			"target":34962
		},
		{
			"buffer":0,
			"byteLength":2976,
			"byteOffset":6628,
			"target":34962
		},
		{
			"buffer":0,
			"byteLength":1984,
			"byteOffset":9604,
			"target":34962
		},
		{
			"buffer":0,
			"byteLength":720,
			"byteOffset":11588,
			"target":34963
		}
	],
	"buffers":[
		{
			"byteLength":12308,
			"uri":"tree_4.bin"
		}
	]
}
