{
	"asset":{
		"generator":"Khronos glTF Blender I/O v4.5.48",
		"version":"2.0"
	},
	"scene":0,
	"scenes":[
		{
			"name":"Scene",
			"nodes":[
				0,
				1
			]
		}
	],
	"nodes":[
		{
			"mesh":0,
			"name":"Lowpoly_Tree_03_Material.004_0",
			"scale":[
				0.009999999776482582,
				0.010000001639127731,
				0.010000001639127731
			],
			"translation":[
				0,
				0,
				1.2000001668930054
			]
		},
		{
			"mesh":1,
			"name":"Lowpoly_Tree_03_Material_0",
			"scale":[
				0.009999999776482582,
				0.010000001639127731,
				0.010000001639127731
			],
			"translation":[
				0,
				0,
				1.2000001668930054
			]
		}
	],
	"materials":[
		{
			"doubleSided":true,
			"name":"Material.005",
			"pbrMetallicRoughness":{
				"baseColorFactor":[
					0.2954467236995697,
					0.45809823274612427,
					0.023511327803134918,
					1
				],
				"metallicFactor":0,
				"roughnessFactor":0.8923612833023071
			}
		},
		{
			"doubleSided":true,
			"name":"Material.003",
			"pbrMetallicRoughness":{
				"baseColorFactor":[
					0.44545453786849976,
					0.17394544184207916,
					0.038472261279821396,
					1
				],
				"metallicFactor":0,
				"roughnessFactor":0.971206784248352
			}
		}
	],
	"meshes":[
		{
			"name":"Lowpoly_Tree_03_Material.004_0",
			"primitives":[
				{
					"attributes":{
						"POSITION":0,
						"NORMAL":1,
						"TEXCOORD_0":2
					},
					"indices":3,
					"material":0
				}
			]
		},
		{
			"name":"Lowpoly_Tree_03_Material_0",
			"primitives":[
				{
					"attributes":{
						"POSITION":4,
						"NORMAL":5,
						"TEXCOORD_0":6
					},
					"indices":7,
					"material":1
				}
			]
		}
	],
	"accessors":[
		{
			"bufferView":0,
			"componentType":5126,
			"count":488,
			"max":[
				25.40254020690918,
				112.70014190673828,
				25.320404052734375
			],
			"min":[
				-22.528148651123047,
				39.70478439331055,
				-23.00047492980957
			],
			"type":"VEC3"
		},
		{
			"bufferView":1,
			"componentType":5126,
			"count":488,
			"type":"VEC3"
		},
		{
			"bufferView":2,
			"componentType":5126,
			"count":488,
			"type":"VEC2"
		},
		{
			"bufferView":3,
			"componentType":5123,
			"count":510,
			"type":"SCALAR"
		},
		{
			"bufferView":4,
			"componentType":5126,
			"count":388,
			"max":[
				14.013786315917969,
				51.188720703125,
				13.576271057128906
			],
			"min":[
				-14.766483306884766,
				-2.9802322387695312e-06,
				-5.700539588928223
			],
			"type":"VEC3"
		},
		{
			"bufferView":5,
			"componentType":5126,
			"count":388,
			"type":"VEC3"
		},
		{
			"bufferView":6,
			"componentType":5126,
			"count":388,
			"type":"VEC2"
		},
		{
			"bufferView":7,
			"componentType":5123,
			"count":438,
			"type":"SCALAR"
		}
	],
	"bufferViews":[
		{
			"buffer":0,
			"byteLength":5856,
			"byteOffset":0,
			"target":34962
		},
		{
			"buffer":0,
			"byteLength":5856,
			"byteOffset":5856,
			"target":34962
		},
		{
			"buffer":0,
			"byteLength":3904,
			"byteOffset":11712,
			"target":34962
		},
		{
			"buffer":0,
			"byteLength":1020,
			"byteOffset":15616,
			"target":34963
		},
		{
			"buffer":0,
			"byteLength":4656,
			"byteOffset":16636,
			"target":34962
		},
		{
			"buffer":0,
			"byteLength":4656,
			"byteOffset":21292,
			"target":34962
		},
		{
			"buffer":0,
			"byteLength":3104,
			"byteOffset":25948,
			"target":34962
		},
		{
			"buffer":0,
			"byteLength":876,
			"byteOffset":29052,
			"target":34963
		}
	],
	"buffers":[
		{
			"byteLength":29928,
			"uri":"tree_11.bin"
		}
	]
}
