{
	"asset":{
		"generator":"Khronos glTF Blender I/O v4.5.48",
		"version":"2.0"
	},
	"scene":0,
	"scenes":[
		{
			"name":"Scene",
			"nodes":[
				0,
				1,
				2,
				3
			]
		}
	],
	"nodes":[
		{
			"mesh":0,
			"name":"Lowpoly_Tree_05_Material.001_0",
			"scale":[
				0.009999999776482582,
				0.010000001639127731,
				0.010000001639127731
			],
			"translation":[
				0,
				0,
				-1.4000002145767212
			]
		},
		{
			"mesh":1,
			"name":"Lowpoly_Tree_05_Material.002_0",
			"scale":[
				0.009999999776482582,
				0.010000001639127731,
				0.010000001639127731
			],
			"translation":[
				0,
				0,
				-1.4000002145767212
			]
		},
		{
			"mesh":2,
			"name":"Lowpoly_Tree_05_Material.003_0",
			"scale":[
				0.009999999776482582,
				0.010000001639127731,
				0.010000001639127731
			],
			"translation":[
				0,
				0,
				-1.4000002145767212
			]
		},
		{
			"mesh":3,
			"name":"Lowpoly_Tree_05_Material_0",
			"scale":[
				0.009999999776482582,
				0.010000001639127731,
				0.010000001639127731
			],
			"translation":[
				0,
				0,
				-1.4000002145767212
			]
		}
	],
	"materials":[
		{
			"doubleSided":true,
			"name":"Material.001",
			"pbrMetallicRoughness":{
				"baseColorFactor":[
					0.21370598673820496,
					0.5313625335693359,
					0.0823298916220665,
					1
				],
				"metallicFactor":0
			}
		},
		{
			"doubleSided":true,
			"name":"Material.002",
			"pbrMetallicRoughness":{
				"baseColorFactor":[
					0.06244755536317825,
					0.41474413871765137,
					0.05897630378603935,
					1
				],
				"metallicFactor":0,
				"roughnessFactor":0.9350433945655823
			}
		},
		{
			"doubleSided":true,
			"name":"Material.004",
			"pbrMetallicRoughness":{
				"baseColorFactor":[
					0.5277190208435059,
					0.0012371200136840343,
					0,
					1
				],
				"metallicFactor":0,
				"roughnessFactor":0.9747150540351868
			}
		},
		{
			"doubleSided":true,
			"name":"Material.003",
			"pbrMetallicRoughness":{
				"baseColorFactor":[
					0.44545453786849976,
					0.17394544184207916,
					0.038472261279821396,
					1
				],
				"metallicFactor":0,
				"roughnessFactor":0.971206784248352
			}
		}
	],
	"meshes":[
		{
			"name":"Lowpoly_Tree_05_Material.001_0",
			"primitives":[
				{
					"attributes":{
						"POSITION":0,
						"NORMAL":1,
						"TEXCOORD_0":2
					},
					"indices":3,
					"material":0
				}
			]
		},
		{
			"name":"Lowpoly_Tree_05_Material.002_0",
			"primitives":[
				{
					"attributes":{
						"POSITION":4,
						"NORMAL":5,
						"TEXCOORD_0":6
					},
					"indices":7,
					"material":1
				}
			]
		},
		{
			"name":"Lowpoly_Tree_05_Material.003_0",
			"primitives":[
				{
					"attributes":{
						"POSITION":8,
						"NORMAL":9,
						"TEXCOORD_0":10
					},
					"indices":11,
					"material":2
				}
			]
		},
		{
			"name":"Lowpoly_Tree_05_Material_0",
			"primitives":[
				{
					"attributes":{
						"POSITION":12,
						"NORMAL":13,
						"TEXCOORD_0":14
					},
					"indices":15,
					"material":3
				}
			]
		}
	],
	"accessors":[
		{
			"bufferView":0,
			"componentType":5126,
			"count":156,
			"max":[
				0.8346349000930786,
				119.56063842773438,
				3.8675882816314697
			],
			"min":[
				-47.383602142333984,
				83.1594467163086,
				-33.357521057128906
			],
			"type":"VEC3"
		},
		{
			"bufferView":1,
			"componentType":5126,
			"count":156,
			"type":"VEC3"
		},
		{
			"bufferView":2,
			"componentType":5126,
			"count":156,
			"type":"VEC2"
		},
		{
			"bufferView":3,
			"componentType":5123,
			"count":156,
			"type":"SCALAR"
		},
		{
			"bufferView":4,
			"componentType":5126,
			"count":276,
			"max":[
				80.02689361572266,
				172.6630401611328,
				44.84701156616211
			],
			"min":[
				-28.75553321838379,
				94.43201446533203,
				-44.2388916015625
			],
			"type":"VEC3"
		},
		{
			"bufferView":5,
			"componentType":5126,
			"count":276,
			"type":"VEC3"
		},
		{
			"bufferView":6,
			"componentType":5126,
			"count":276,
			"type":"VEC2"
		},
		{
			"bufferView":7,
			"componentType":5123,
			"count":276,
			"type":"SCALAR"
		},
		{
			"bufferView":8,
			"componentType":5126,
			"count":780,
			"max":[
				64.2665023803711,
				124.03770446777344,
				43.68695068359375
			],
			"min":[
				-38.57426452636719,
				80.33773803710938,
				-26.85087013244629
			],
			"type":"VEC3"
		},
		{
			"bufferView":9,
			"componentType":5126,
			"count":780,
			"type":"VEC3"
		},
		{
			"bufferView":10,
			"componentType":5126,
			"count":780,
			"type":"VEC2"
		},
		{
			"bufferView":11,
			"componentType":5123,
			"count":780,
			"type":"SCALAR"
		},
		{
			"bufferView":12,
			"componentType":5126,
			"count":415,
			"max":[
				35.190189361572266,
				112.05224609375,
				13.883606910705566
			],
			"min":[
				-26.795387268066406,
				0,
				-19.749549865722656
			],
			"type":"VEC3"
		},
		{
			"bufferView":13,
			"componentType":5126,
			"count":415,
			"type":"VEC3"
		},
		{
			"bufferView":14,
			"componentType":5126,
			"count":415,
			"type":"VEC2"
		},
		{
			"bufferView":15,
			"componentType":5123,
			"count":462,
			"type":"SCALAR"
		}
	],
	"bufferViews":[
		{
			"buffer":0,
			"byteLength":1872,
			"byteOffset":0,
			"target":34962
		},
		{
			"buffer":0,
			"byteLength":1872,
			"byteOffset":1872,
			"target":34962
		},
		{
			"buffer":0,
			"byteLength":1248,
			"byteOffset":3744,
			"target":34962
		},
		{
			"buffer":0,
			"byteLength":312,
			"byteOffset":4992,
			"target":34963
		},
		{
			"buffer":0,
			"byteLength":3312,
			"byteOffset":5304,
			"target":34962
		},
		{
			"buffer":0,
			"byteLength":3312,
			"byteOffset":8616,
			"target":34962
		},
		{
			"buffer":0,
			"byteLength":2208,
			"byteOffset":11928,
			"target":34962
		},
		{
			"buffer":0,
			"byteLength":552,
			"byteOffset":14136,
			"target":34963
		},
		{
			"buffer":0,
			"byteLength":9360,
			"byteOffset":14688,
			"target":34962
		},
		{
			"buffer":0,
			"byteLength":9360,
			"byteOffset":24048,
			"target":34962
		},
		{
			"buffer":0,
			"byteLength":6240,
			"byteOffset":33408,
			"target":34962
		},
		{
			"buffer":0,
			"byteLength":1560,
			"byteOffset":39648,
			"target":34963
		},
		{
			"buffer":0,
			"byteLength":4980,
			"byteOffset":41208,
			"target":34962
		},
		{
			"buffer":0,
			"byteLength":4980,
			"byteOffset":46188,
			"target":34962
		},
		{
			"buffer":0,
			"byteLength":3320,
			"byteOffset":51168,
			"target":34962
		},
		{
			"buffer":0,
			"byteLength":924,
			"byteOffset":54488,
			"target":34963
		}
	],
	"buffers":[
		{
			"byteLength":55412,
			"uri":"tree_13.bin"
		}
	]
}
