{
	"asset":{
		"generator":"Khronos glTF Blender I/O v4.5.48",
		"version":"2.0"
	},
	"scene":0,
	"scenes":[
		{
			"name":"Scene",
			"nodes":[
				0,
				1,
				2
			]
		}
	],
	"nodes":[
		{
			"mesh":0,
			"name":"Lowpoly_Tree_01_Material.001_0",
			"scale":[
				0.009999999776482582,
				0.010000001639127731,
				0.010000001639127731
			],
			"translation":[
				0,
				0,
				-3.000000476837158
			]
		},
		{
			"mesh":1,
			"name":"Lowpoly_Tree_01_Material.002_0",
			"scale":[
				0.009999999776482582,
				0.010000001639127731,
				0.010000001639127731
			],
			"translation":[
				0,
				0,
				-3.000000476837158
			]
		},
		{
			"mesh":2,
			"name":"Lowpoly_Tree_01_Material_0",
			"scale":[
				0.009999999776482582,
				0.010000001639127731,
				0.010000001639127731
			],
			"translation":[
				0,
				0,
				-3.000000476837158
			]
		}
	],
	"materials":[
		{
			"doubleSided":true,
			"name":"Material.001",
			"pbrMetallicRoughness":{
				"baseColorFactor":[
					0.21370598673820496,
					0.5313625335693359,
					0.0823298916220665,
					1
				],
				"metallicFactor":0
			}
		},
		{
			"doubleSided":true,
			"name":"Material.002",
			"pbrMetallicRoughness":{
				"baseColorFactor":[
					0.06244755536317825,
					0.41474413871765137,
					0.05897630378603935,
					1
				],
				"metallicFactor":0,
				"roughnessFactor":0.9350433945655823
			}
		},
		{
			"doubleSided":true,
			"name":"Material.003",
			"pbrMetallicRoughness":{
				"baseColorFactor":[
					0.44545453786849976,
					0.17394544184207916,
					0.038472261279821396,
					1
				],
				"metallicFactor":0,
				"roughnessFactor":0.971206784248352
			}
		}
	],
	"meshes":[
		{
			"name":"Lowpoly_Tree_01_Material.001_0",
			"primitives":[
				{
					"attributes":{
						"POSITION":0,
						"NORMAL":1,
						"TEXCOORD_0":2
					},
					"indices":3,
					"material":0
				}
			]
		},
		{
			"name":"Lowpoly_Tree_01_Material.002_0",
			"primitives":[
				{
					"attributes":{
						"POSITION":4,
						"NORMAL":5,
						"TEXCOORD_0":6
					},
					"indices":7,
					"material":1
				}
			]
		},
		{
			"name":"Lowpoly_Tree_01_Material_0",
			"primitives":[
				{
					"attributes":{
						"POSITION":8,
						"NORMAL":9,
						"TEXCOORD_0":10
					},
					"indices":11,
					"material":2
				}
			]
		}
	],
	"accessors":[
		{
			"bufferView":0,
			"componentType":5126,
			"count":288,
			"max":[
				52.54499816894531,
				163.57839965820312,
				36.255306243896484
			],
			"min":[
				-14.99122428894043,
				91.76911926269531,
				-33.60428237915039
			],
			"type":"VEC3"
		},
		{
			"bufferView":1,
			"componentType":5126,
			"count":288,
			"type":"VEC3"
		},
		{
			"bufferView":2,
			"componentType":5126,
			"count":288,
			"type":"VEC2"
		},
		{
			"bufferView":3,
			"componentType":5123,
			"count":288,
			"type":"SCALAR"
		},
		{
			"bufferView":4,
			"componentType":5126,
			"count":192,
			"max":[
				24.863582611083984,
				138.926513671875,
				7.747032642364502
			],
			"min":[
				-43.508033752441406,
				93.97935485839844,
				-44.84186553955078
			],
			"type":"VEC3"
		},
		{
			"bufferView":5,
			"componentType":5126,
			"count":192,
			"type":"VEC3"
		},
		{
			"bufferView":6,
			"componentType":5126,
			"count":192,
			"type":"VEC2"
		},
		{
			"bufferView":7,
			"componentType":5123,
			"count":192,
			"type":"SCALAR"
		},
		{
			"bufferView":8,
			"componentType":5126,
			"count":1701,
			"max":[
				43.2274055480957,
				131.0684814453125,
				22.740745544433594
			],
			"min":[
				-29.76480484008789,
				0,
				-29.286109924316406
			],
			"type":"VEC3"
		},
		{
			"bufferView":9,
			"componentType":5126,
			"count":1701,
			"type":"VEC3"
		},
		{
			"bufferView":10,
			"componentType":5126,
			"count":1701,
			"type":"VEC2"
		},
		{
			"bufferView":11,
			"componentType":5123,
			"count":1956,
			"type":"SCALAR"
		}
	],
	"bufferViews":[
		{
			"buffer":0,
			"byteLength":3456,
			"byteOffset":0,
			"target":34962
		},
		{
			"buffer":0,
			"byteLength":3456,
			"byteOffset":3456,
			"target":34962
		},
		{
			"buffer":0,
			"byteLength":2304,
			"byteOffset":6912,
			"target":34962
		},
		{
			"buffer":0,
			"byteLength":576,
			"byteOffset":9216,
			"target":34963
		},
		{
			"buffer":0,
			"byteLength":2304,
			"byteOffset":9792,
			"target":34962
		},
		{
			"buffer":0,
			"byteLength":2304,
			"byteOffset":12096,
			"target":34962
		},
		{
			"buffer":0,
			"byteLength":1536,
			"byteOffset":14400,
			"target":34962
		},
		{
			"buffer":0,
			"byteLength":384,
			"byteOffset":15936,
			"target":34963
		},
		{
			"buffer":0,
			"byteLength":20412,
			"byteOffset":16320,
			"target":34962
		},
		{
			"buffer":0,
			"byteLength":20412,
			"byteOffset":36732,
			"target":34962
		},
		{
			"buffer":0,
			"byteLength":13608,
			"byteOffset":57144,
			"target":34962
		},
		{
			"buffer":0,
			"byteLength":3912,
			"byteOffset":70752,
			"target":34963
		}
	],
	"buffers":[
		{
			"byteLength":74664,
			"uri":"tree_9.bin"
		}
	]
}
