{
	"asset":{
		"generator":"Khronos glTF Blender I/O v4.5.48",
		"version":"2.0"
	},
	"scene":0,
	"scenes":[
		{
			"name":"Scene",
			"nodes":[
				0
			]
		}
	],
	"nodes":[
		{
			"mesh":0,
			"name":"Tree_winding_01_Material_0",
			"translation":[
				0,
				4.433477401733398,
				0
			]
		}
	],
	"materials":[
		{
			"doubleSided":true,
			"name":"Material.038",
			"occlusionTexture":{
				"index":0
			},
			"pbrMetallicRoughness":{
				"baseColorTexture":{
					"index":1
				},
				"metallicFactor":0,
				"metallicRoughnessTexture":{
					"index":0
				},
				"roughnessFactor":0.8211145401000977
			}
		}
	],
	"meshes":[
		{
			"name":"Tree_winding_01_Material_0",
			"primitives":[
				{
					"attributes":{
						"POSITION":0,
						"NORMAL":1,
						"TEXCOORD_0":2
					},
					"indices":3,
					"material":0
				}
			]
		}
	],
	"textures":[
		{
			"sampler":0,
			"source":0
		},
		{
			"sampler":0,
			"source":1
		}
	],
	"images":[
		{
			"mimeType":"image/png",
			"name":"Image_1",
			"uri":"Image_1.png"
		},
		{
			"mimeType":"image/png",
			"name":"Image_0",
			"uri":"Image_0.png"
		}
	],
	"accessors":[
		{
			"bufferView":0,
			"componentType":5126,
			"count":3032,
			"max":[
				2.127537250518799,
				2.913670301437378,
				2.584625244140625
			],
			"min":[
				-1.9474315643310547,
				-4.549763202667236,
				-2.462763547897339
			],
			"type":"VEC3"
		},
		{
			"bufferView":1,
			"componentType":5126,
			"count":3032,
			"type":"VEC3"
		},
		{
			"bufferView":2,
			"componentType":5126,
			"count":3032,
			"type":"VEC2"
		},
		{
			"bufferView":3,
			"componentType":5123,
			"count":3378,
			"type":"SCALAR"
		}
	],
	"bufferViews":[
		{
			"buffer":0,
			"byteLength":36384,
			"byteOffset":0,
			"target":34962
		},
		{
			"buffer":0,
			"byteLength":36384,
			"byteOffset":36384,
			"target":34962
		},
		{
			"buffer":0,
			"byteLength":24256,
			"byteOffset":72768,
			"target":34962
		},
		{
			"buffer":0,
			"byteLength":6756,
			"byteOffset":97024,
			"target":34963
		}
	],
	"samplers":[
		{
			"magFilter":9729,
			"minFilter":9987
		}
	],
	"buffers":[
		{
			"byteLength":103780,
			"uri":"tree_20.bin"
		}
	]
}
