{
	"asset":{
		"generator":"Khronos glTF Blender I/O v4.5.48",
		"version":"2.0"
	},
	"scene":0,
	"scenes":[
		{
			"name":"Scene",
			"nodes":[
				0,
				1,
				2
			]
		}
	],
	"nodes":[
		{
			"mesh":0,
			"name":"Circle_Material.002_0",
			"rotation":[
				-0.70710688829422,
				0,
				0,
				0.7071066498756409
			],
			"scale":[
				30.000001907348633,
				30.0000057220459,
				30.0000057220459
			],
			"translation":[
				297.0283508300781,
				0,
				0
			]
		},
		{
			"mesh":1,
			"name":"Circle_Material.003_0",
			"rotation":[
				-0.70710688829422,
				0,
				0,
				0.7071066498756409
			],
			"scale":[
				30.000001907348633,
				30.0000057220459,
				30.0000057220459
			],
			"translation":[
				297.0283508300781,
				0,
				0
			]
		},
		{
			"mesh":2,
			"name":"Circle_Material.004_0",
			"rotation":[
				-0.70710688829422,
				0,
				0,
				0.7071066498756409
			],
			"scale":[
				30.000001907348633,
				30.0000057220459,
				30.0000057220459
			],
			"translation":[
				297.0283508300781,
				0,
				0
			]
		}
	],
	"materials":[
		{
			"doubleSided":true,
			"name":"Material.010",
			"pbrMetallicRoughness":{
				"baseColorFactor":[
					0.0626474991440773,
					0.2697350084781647,
					0.0629085972905159,
					1
				],
				"metallicFactor":0,
				"roughnessFactor":0.952869176864624
			}
		},
		{
			"doubleSided":true,
			"name":"Material.009",
			"pbrMetallicRoughness":{
				"baseColorFactor":[
					0.28997600078582764,
					0.800000011920929,
					0.12104099988937378,
					1
				],
				"metallicFactor":0,
				"roughnessFactor":0.8563218712806702
			}
		},
		{
			"doubleSided":true,
			"name":"Material.008",
			"pbrMetallicRoughness":{
				"baseColorFactor":[
					0.304980993270874,
					0.1869809925556183,
					0.01907460018992424,
					1
				],
				"metallicFactor":0,
				"roughnessFactor":0.9552909731864929
			}
		}
	],
	"meshes":[
		{
			"name":"Circle_Material.002_0",
			"primitives":[
				{
					"attributes":{
						"POSITION":0,
						"NORMAL":1,
						"TEXCOORD_0":2
					},
					"indices":3,
					"material":0
				}
			]
		},
		{
			"name":"Circle_Material.003_0",
			"primitives":[
				{
					"attributes":{
						"POSITION":4,
						"NORMAL":5,
						"TEXCOORD_0":6
					},
					"indices":7,
					"material":1
				}
			]
		},
		{
			"name":"Circle_Material.004_0",
			"primitives":[
				{
					"attributes":{
						"POSITION":8,
						"NORMAL":9,
						"TEXCOORD_0":10
					},
					"indices":11,
					"material":2
				}
			]
		}
	],
	"accessors":[
		{
			"bufferView":0,
			"componentType":5126,
			"count":899,
			"max":[
				1.328760027885437,
				2.7031490802764893,
				11.617079734802246
			],
			"min":[
				-4.422719478607178,
				-2.1548027992248535,
				3.554901599884033
			],
			"type":"VEC3"
		},
		{
			"bufferView":1,
			"componentType":5126,
			"count":899,
			"type":"VEC3"
		},
		{
			"bufferView":2,
			"componentType":5126,
			"count":899,
			"type":"VEC2"
		},
		{
			"bufferView":3,
			"componentType":5123,
			"count":1200,
			"type":"SCALAR"
		},
		{
			"bufferView":4,
			"componentType":5126,
			"count":718,
			"max":[
				1.7563308477401733,
				2.7456908226013184,
				11.961896896362305
			],
			"min":[
				-3.776658535003662,
				-1.870363712310791,
				4.247335910797119
			],
			"type":"VEC3"
		},
		{
			"bufferView":5,
			"componentType":5126,
			"count":718,
			"type":"VEC3"
		},
		{
			"bufferView":6,
			"componentType":5126,
			"count":718,
			"type":"VEC2"
		},
		{
			"bufferView":7,
			"componentType":5123,
			"count":960,
			"type":"SCALAR"
		},
		{
			"bufferView":8,
			"componentType":5126,
			"count":658,
			"max":[
				1.2375781536102295,
				2.5856375694274902,
				11.081411361694336
			],
			"min":[
				-3.452078342437744,
				-1.5248817205429077,
				0
			],
			"type":"VEC3"
		},
		{
			"bufferView":9,
			"componentType":5126,
			"count":658,
			"type":"VEC3"
		},
		{
			"bufferView":10,
			"componentType":5126,
			"count":658,
			"type":"VEC2"
		},
		{
			"bufferView":11,
			"componentType":5123,
			"count":1008,
			"type":"SCALAR"
		}
	],
	"bufferViews":[
		{
			"buffer":0,
			"byteLength":10788,
			"byteOffset":0,
			"target":34962
		},
		{
			"buffer":0,
			"byteLength":10788,
			"byteOffset":10788,
			"target":34962
		},
		{
			"buffer":0,
			"byteLength":7192,
			"byteOffset":21576,
			"target":34962
		},
		{
			"buffer":0,
			"byteLength":2400,
			"byteOffset":28768,
			"target":34963
		},
		{
			"buffer":0,
			"byteLength":8616,
			"byteOffset":31168,
			"target":34962
		},
		{
			"buffer":0,
			"byteLength":8616,
			"byteOffset":39784,
			"target":34962
		},
		{
			"buffer":0,
			"byteLength":5744,
			"byteOffset":48400,
			"target":34962
		},
		{
			"buffer":0,
			"byteLength":1920,
			"byteOffset":54144,
			"target":34963
		},
		{
			"buffer":0,
			"byteLength":7896,
			"byteOffset":56064,
			"target":34962
		},
		{
			"buffer":0,
			"byteLength":7896,
			"byteOffset":63960,
			"target":34962
		},
		{
			"buffer":0,
			"byteLength":5264,
			"byteOffset":71856,
			"target":34962
		},
		{
			"buffer":0,
			"byteLength":2016,
			"byteOffset":77120,
			"target":34963
		}
	],
	"buffers":[
		{
			"byteLength":79136,
			"uri":"tree_3.bin"
		}
	]
}
