{
	"asset":{
		"generator":"Khronos glTF Blender I/O v4.5.48",
		"version":"2.0"
	},
	"scene":0,
	"scenes":[
		{
			"name":"Scene",
			"nodes":[
				0,
				2
			]
		}
	],
	"nodes":[
		{
			"mesh":0,
			"name":"Circle.003_Material.011_0",
			"rotation":[
				-0.5000001192092896,
				0.4999999403953552,
				0.5000000596046448,
				0.4999999403953552
			],
			"scale":[
				0.39649784564971924,
				0.3964978754520416,
				0.3964978754520416
			],
			"translation":[
				0,
				0,
				16.0474910736084
			]
		},
		{
			"mesh":1,
			"name":"Circle.004_Material.012_0"
		},
		{
			"children":[
				1
			],
			"name":"Circle.004",
			"rotation":[
				-0.5000001192092896,
				0.4999999403953552,
				0.5000000596046448,
				0.4999999403953552
			],
			"scale":[
				0.39649784564971924,
				0.3964978754520416,
				0.3964978754520416
			],
			"translation":[
				0,
				0,
				16.0474910736084
			]
		}
	],
	"materials":[
		{
			"doubleSided":true,
			"name":"Material.011",
			"pbrMetallicRoughness":{
				"baseColorFactor":[
					0.24227599799633026,
					0.15338100492954254,
					0.03324919939041138,
					1
				],
				"metallicFactor":0,
				"roughnessFactor":0.9634164571762085
			}
		},
		{
			"doubleSided":true,
			"name":"Material.012",
			"pbrMetallicRoughness":{
				"baseColorFactor":[
					0.06660100072622299,
					0.18781599402427673,
					0.018501000478863716,
					1
				],
				"metallicFactor":0,
				"roughnessFactor":0.9664989709854126
			}
		}
	],
	"meshes":[
		{
			"name":"Circle.003_Material.011_0",
			"primitives":[
				{
					"attributes":{
						"POSITION":0,
						"NORMAL":1,
						"TEXCOORD_0":2
					},
					"indices":3,
					"material":0
				}
			]
		},
		{
			"name":"Circle.004_Material.012_0",
			"primitives":[
				{
					"attributes":{
						"POSITION":4,
						"NORMAL":5,
						"TEXCOORD_0":6
					},
					"indices":7,
					"material":1
				}
			]
		}
	],
	"accessors":[
		{
			"bufferView":0,
			"componentType":5126,
			"count":798,
			"max":[
				1.7696318626403809,
				1.1841322183609009,
				6.659132957458496
			],
			"min":[
				-2.3103883266448975,
				-1.1497235298156738,
				0
			],
			"type":"VEC3"
		},
		{
			"bufferView":1,
			"componentType":5126,
			"count":798,
			"type":"VEC3"
		},
		{
			"bufferView":2,
			"componentType":5126,
			"count":798,
			"type":"VEC2"
		},
		{
			"bufferView":3,
			"componentType":5123,
			"count":1257,
			"type":"SCALAR"
		},
		{
			"bufferView":4,
			"componentType":5126,
			"count":555,
			"max":[
				4.099499702453613,
				4.419220447540283,
				23.636770248413086
			],
			"min":[
				-4.810730934143066,
				-4.290805816650391,
				5.943976402282715
			],
			"type":"VEC3"
		},
		{
			"bufferView":5,
			"componentType":5126,
			"count":555,
			"type":"VEC3"
		},
		{
			"bufferView":6,
			"componentType":5126,
			"count":555,
			"type":"VEC2"
		},
		{
			"bufferView":7,
			"componentType":5123,
			"count":819,
			"type":"SCALAR"
		}
	],
	"bufferViews":[
		{
			"buffer":0,
			"byteLength":9576,
			"byteOffset":0,
			"target":34962
		},
		{
			"buffer":0,
			"byteLength":9576,
			"byteOffset":9576,
			"target":34962
		},
		{
			"buffer":0,
			"byteLength":6384,
			"byteOffset":19152,
			"target":34962
		},
		{
			"buffer":0,
			"byteLength":2514,
			"byteOffset":25536,
			"target":34963
		},
		{
			"buffer":0,
			"byteLength":6660,
			"byteOffset":28052,
			"target":34962
		},
		{
			"buffer":0,
			"byteLength":6660,
			"byteOffset":34712,
			"target":34962
		},
		{
			"buffer":0,
			"byteLength":4440,
			"byteOffset":41372,
			"target":34962
		},
		{
			"buffer":0,
			"byteLength":1638,
			"byteOffset":45812,
			"target":34963
		}
	],
	"buffers":[
		{
			"byteLength":47452,
			"uri":"tree_6.bin"
		}
	]
}
