{
	"asset":{
		"generator":"Khronos glTF Blender I/O v4.5.48",
		"version":"2.0"
	},
	"scene":0,
	"scenes":[
		{
			"name":"Scene",
			"nodes":[
				0,
				1
			]
		}
	],
	"nodes":[
		{
			"mesh":0,
			"name":"Lowpoly_Tree_10_Material.004_0",
			"scale":[
				0.009999999776482582,
				0.010000001639127731,
				0.010000001639127731
			],
			"translation":[
				-1.5999999046325684,
				0,
				1.2000001668930054
			]
		},
		{
			"mesh":1,
			"name":"Lowpoly_Tree_10_Material_0",
			"scale":[
				0.009999999776482582,
				0.010000001639127731,
				0.010000001639127731
			],
			"translation":[
				-1.5999999046325684,
				0,
				1.2000001668930054
			]
		}
	],
	"materials":[
		{
			"doubleSided":true,
			"name":"Material.037",
			"pbrMetallicRoughness":{
				"baseColorFactor":[
					0.2954467236995697,
					0.45809823274612427,
					0.023511327803134918,
					1
				],
				"metallicFactor":0,
				"roughnessFactor":0.8923612833023071
			}
		},
		{
			"doubleSided":true,
			"name":"Material.035",
			"pbrMetallicRoughness":{
				"baseColorFactor":[
					0.44545453786849976,
					0.17394544184207916,
					0.038472261279821396,
					1
				],
				"metallicFactor":0,
				"roughnessFactor":0.971206784248352
			}
		}
	],
	"meshes":[
		{
			"name":"Lowpoly_Tree_10_Material.004_0.001",
			"primitives":[
				{
					"attributes":{
						"POSITION":0,
						"NORMAL":1,
						"TEXCOORD_0":2
					},
					"indices":3,
					"material":0
				}
			]
		},
		{
			"name":"Lowpoly_Tree_10_Material_0.001",
			"primitives":[
				{
					"attributes":{
						"POSITION":4,
						"NORMAL":5,
						"TEXCOORD_0":6
					},
					"indices":7,
					"material":1
				}
			]
		}
	],
	"accessors":[
		{
			"bufferView":0,
			"componentType":5126,
			"count":618,
			"max":[
				22.51576042175293,
				125.72728729248047,
				23.5747013092041
			],
			"min":[
				-22.89325714111328,
				39.21949768066406,
				-23.469867706298828
			],
			"type":"VEC3"
		},
		{
			"bufferView":1,
			"componentType":5126,
			"count":618,
			"type":"VEC3"
		},
		{
			"bufferView":2,
			"componentType":5126,
			"count":618,
			"type":"VEC2"
		},
		{
			"bufferView":3,
			"componentType":5123,
			"count":660,
			"type":"SCALAR"
		},
		{
			"bufferView":4,
			"componentType":5126,
			"count":330,
			"max":[
				13.954014778137207,
				53.010250091552734,
				11.200155258178711
			],
			"min":[
				-12.543129920959473,
				0,
				-6.806634426116943
			],
			"type":"VEC3"
		},
		{
			"bufferView":5,
			"componentType":5126,
			"count":330,
			"type":"VEC3"
		},
		{
			"bufferView":6,
			"componentType":5126,
			"count":330,
			"type":"VEC2"
		},
		{
			"bufferView":7,
			"componentType":5123,
			"count":366,
			"type":"SCALAR"
		}
	],
	"bufferViews":[
		{
			"buffer":0,
			"byteLength":7416,
			"byteOffset":0,
			"target":34962
		},
		{
			"buffer":0,
			"byteLength":7416,
			"byteOffset":7416,
			"target":34962
		},
		{
			"buffer":0,
			"byteLength":4944,
			"byteOffset":14832,
			"target":34962
		},
		{
			"buffer":0,
			"byteLength":1320,
			"byteOffset":19776,
			"target":34963
		},
		{
			"buffer":0,
			"byteLength":3960,
			"byteOffset":21096,
			"target":34962
		},
		{
			"buffer":0,
			"byteLength":3960,
			"byteOffset":25056,
			"target":34962
		},
		{
			"buffer":0,
			"byteLength":2640,
			"byteOffset":29016,
			"target":34962
		},
		{
			"buffer":0,
			"byteLength":732,
			"byteOffset":31656,
			"target":34963
		}
	],
	"buffers":[
		{
			"byteLength":32388,
			"uri":"tree_18.bin"
		}
	]
}
