{
	"asset":{
		"generator":"Khronos glTF Blender I/O v4.5.48",
		"version":"2.0"
	},
	"scene":0,
	"scenes":[
		{
			"name":"Scene",
			"nodes":[
				0,
				1
			]
		}
	],
	"nodes":[
		{
			"mesh":0,
			"name":"Circle.005_Material.013_0",
			"rotation":[
				-0.5000001192092896,
				0.4999999403953552,
				0.5000000596046448,
				0.4999999403953552
			],
			"scale":[
				1.010602355003357,
				1.010602355003357,
				1.010602355003357
			],
			"translation":[
				0,
				0,
				25.83140754699707
			]
		},
		{
			"mesh":1,
			"name":"Circle.005_Material.014_0",
			"rotation":[
				-0.5000001192092896,
				0.4999999403953552,
				0.5000000596046448,
				0.4999999403953552
			],
			"scale":[
				1.010602355003357,
				1.010602355003357,
				1.010602355003357
			],
			"translation":[
				0,
				0,
				25.83140754699707
			]
		}
	],
	"materials":[
		{
			"doubleSided":true,
			"name":"Material.013",
			"pbrMetallicRoughness":{
				"baseColorFactor":[
					0.17877499759197235,
					0.11319799721240997,
					0.015153500251471996,
					1
				],
				"metallicFactor":0,
				"roughnessFactor":0.9731535911560059
			}
		},
		{
			"doubleSided":true,
			"name":"Material.014",
			"pbrMetallicRoughness":{
				"baseColorFactor":[
					0.007619750220328569,
					0.17434999346733093,
					0.025255199521780014,
					1
				],
				"metallicFactor":0,
				"roughnessFactor":0.9713473320007324
			}
		}
	],
	"meshes":[
		{
			"name":"Circle.005_Material.013_0",
			"primitives":[
				{
					"attributes":{
						"POSITION":0,
						"NORMAL":1,
						"TEXCOORD_0":2
					},
					"indices":3,
					"material":0
				}
			]
		},
		{
			"name":"Circle.005_Material.014_0",
			"primitives":[
				{
					"attributes":{
						"POSITION":4,
						"NORMAL":5,
						"TEXCOORD_0":6
					},
					"indices":7,
					"material":1
				}
			]
		}
	],
	"accessors":[
		{
			"bufferView":0,
			"componentType":5126,
			"count":1391,
			"max":[
				3.140929937362671,
				1.9761842489242554,
				5.27593469619751
			],
			"min":[
				-1.925644874572754,
				-2.006166696548462,
				0
			],
			"type":"VEC3"
		},
		{
			"bufferView":1,
			"componentType":5126,
			"count":1391,
			"type":"VEC3"
		},
		{
			"bufferView":2,
			"componentType":5126,
			"count":1391,
			"type":"VEC2"
		},
		{
			"bufferView":3,
			"componentType":5123,
			"count":2133,
			"type":"SCALAR"
		},
		{
			"bufferView":4,
			"componentType":5126,
			"count":355,
			"max":[
				5.0359883308410645,
				5.320446014404297,
				9.19277572631836
			],
			"min":[
				-4.886264324188232,
				-4.492747783660889,
				3.658992290496826
			],
			"type":"VEC3"
		},
		{
			"bufferView":5,
			"componentType":5126,
			"count":355,
			"type":"VEC3"
		},
		{
			"bufferView":6,
			"componentType":5126,
			"count":355,
			"type":"VEC2"
		},
		{
			"bufferView":7,
			"componentType":5123,
			"count":525,
			"type":"SCALAR"
		}
	],
	"bufferViews":[
		{
			"buffer":0,
			"byteLength":16692,
			"byteOffset":0,
			"target":34962
		},
		{
			"buffer":0,
			"byteLength":16692,
			"byteOffset":16692,
			"target":34962
		},
		{
			"buffer":0,
			"byteLength":11128,
			"byteOffset":33384,
			"target":34962
		},
		{
			"buffer":0,
			"byteLength":4266,
			"byteOffset":44512,
			"target":34963
		},
		{
			"buffer":0,
			"byteLength":4260,
			"byteOffset":48780,
			"target":34962
		},
		{
			"buffer":0,
			"byteLength":4260,
			"byteOffset":53040,
			"target":34962
		},
		{
			"buffer":0,
			"byteLength":2840,
			"byteOffset":57300,
			"target":34962
		},
		{
			"buffer":0,
			"byteLength":1050,
			"byteOffset":60140,
			"target":34963
		}
	],
	"buffers":[
		{
			"byteLength":61192,
			"uri":"tree_7.bin"
		}
	]
}
