{
	"asset":{
		"generator":"Khronos glTF Blender I/O v4.5.48",
		"version":"2.0"
	},
	"scene":0,
	"scenes":[
		{
			"name":"Scene",
			"nodes":[
				6,
				8
			]
		}
	],
	"nodes":[
		{
			"name":"Lamp.001"
		},
		{
			"children":[
				0
			],
			"name":"Lamp",
			"rotation":[
				0.16907529532909393,
				0.27217087149620056,
				0.7558793425559998,
				0.5709494352340698
			],
			"scale":[
				0.9999976754188538,
				0.9999959468841553,
				0.9999961256980896
			],
			"translation":[
				7.2691497802734375,
				2.2365798950195312,
				10.38362979888916
			]
		},
		{
			"mesh":0,
			"name":"Plane_0",
			"scale":[
				100.00000762939453,
				99.99999237060547,
				99.99999237060547
			]
		},
		{
			"mesh":1,
			"name":"Plane_1",
			"scale":[
				100.00000762939453,
				99.99999237060547,
				99.99999237060547
			]
		},
		{
			"children":[
				2,
				3
			],
			"name":"Plane",
			"scale":[
				0.16790999472141266,
				0.16790999472141266,
				0.16790999472141266
			]
		},
		{
			"children":[
				1,
				4
			],
			"name":"Root"
		},
		{
			"children":[
				5
			],
			"name":"Sketchfab_model",
			"rotation":[
				-0.70710688829422,
				0,
				0,
				0.7071066498756409
			]
		},
		{
			"name":"Lamp.003"
		},
		{
			"children":[
				7
			],
			"name":"Lamp.002",
			"rotation":[
				0.16907529532909393,
				0.27217087149620056,
				0.7558793425559998,
				0.5709494352340698
			],
			"scale":[
				0.9999976754188538,
				0.9999960064888,
				0.9999961256980896
			],
			"translation":[
				7.2691497802734375,
				2.2365798950195312,
				10.38362979888916
			]
		}
	],
	"materials":[
		{
			"doubleSided":true,
			"name":"Material.001"
		},
		{
			"doubleSided":true,
			"name":"Material.002",
			"pbrMetallicRoughness":{
				"baseColorFactor":[
					0.8000000715255737,
					0.31156301498413086,
					0.10352377593517303,
					1
				],
				"metallicFactor":0,
				"roughnessFactor":0.6000000238418579
			}
		}
	],
	"meshes":[
		{
			"name":"Plane_0",
			"primitives":[
				{
					"attributes":{
						"POSITION":0,
						"NORMAL":1
					},
					"indices":2,
					"material":0
				}
			]
		},
		{
			"name":"Plane_1",
			"primitives":[
				{
					"attributes":{
						"POSITION":3,
						"NORMAL":4
					},
					"indices":5,
					"material":1
				}
			]
		}
	],
	"accessors":[
		{
			"bufferView":0,
			"componentType":5126,
			"count":201,
			"max":[
				4.878970146179199,
				4.957409858703613,
				26.937320709228516
			],
			"min":[
				-4.878970146179199,
				-4.957409858703613,
				3.2858901023864746
			],
			"type":"VEC3"
		},
		{
			"bufferView":1,
			"componentType":5126,
			"count":201,
			"type":"VEC3"
		},
		{
			"bufferView":2,
			"componentType":5123,
			"count":312,
			"type":"SCALAR"
		},
		{
			"bufferView":3,
			"componentType":5126,
			"count":41,
			"max":[
				1.5233500003814697,
				1.5478399991989136,
				3.2858901023864746
			],
			"min":[
				-1.5233500003814697,
				-1.5478399991989136,
				-0.2368299961090088
			],
			"type":"VEC3"
		},
		{
			"bufferView":4,
			"componentType":5126,
			"count":41,
			"type":"VEC3"
		},
		{
			"bufferView":5,
			"componentType":5123,
			"count":72,
			"type":"SCALAR"
		}
	],
	"bufferViews":[
		{
			"buffer":0,
			"byteLength":2412,
			"byteOffset":0,
			"target":34962
		},
		{
			"buffer":0,
			"byteLength":2412,
			"byteOffset":2412,
			"target":34962
		},
		{
			"buffer":0,
			"byteLength":624,
			"byteOffset":4824,
			"target":34963
		},
		{
			"buffer":0,
			"byteLength":492,
			"byteOffset":5448,
			"target":34962
		},
		{
			"buffer":0,
			"byteLength":492,
			"byteOffset":5940,
			"target":34962
		},
		{
			"buffer":0,
			"byteLength":144,
			"byteOffset":6432,
			"target":34963
		}
	],
	"buffers":[
		{
			"byteLength":6576,
			"uri":"tree_1.bin"
		}
	]
}
