{
	"asset":{
		"generator":"Khronos glTF Blender I/O v4.5.48",
		"version":"2.0"
	},
	"scene":0,
	"scenes":[
		{
			"name":"Scene",
			"nodes":[
				0,
				1
			]
		}
	],
	"nodes":[
		{
			"mesh":0,
			"name":"Lowpoly_Tree_11_Material.004_0",
			"scale":[
				0.009999999776482582,
				0.010000001639127731,
				0.010000001639127731
			],
			"translation":[
				1.5999999046325684,
				0,
				1.2000001668930054
			]
		},
		{
			"mesh":1,
			"name":"Lowpoly_Tree_11_Material_0",
			"scale":[
				0.009999999776482582,
				0.010000001639127731,
				0.010000001639127731
			],
			"translation":[
				1.5999999046325684,
				0,
				1.2000001668930054
			]
		}
	],
	"materials":[
		{
			"doubleSided":true,
			"name":"Material.037",
			"pbrMetallicRoughness":{
				"baseColorFactor":[
					0.2954467236995697,
					0.45809823274612427,
					0.023511327803134918,
					1
				],
				"metallicFactor":0,
				"roughnessFactor":0.8923612833023071
			}
		},
		{
			"doubleSided":true,
			"name":"Material.035",
			"pbrMetallicRoughness":{
				"baseColorFactor":[
					0.44545453786849976,
					0.17394544184207916,
					0.038472261279821396,
					1
				],
				"metallicFactor":0,
				"roughnessFactor":0.971206784248352
			}
		}
	],
	"meshes":[
		{
			"name":"Lowpoly_Tree_11_Material.004_0.001",
			"primitives":[
				{
					"attributes":{
						"POSITION":0,
						"NORMAL":1,
						"TEXCOORD_0":2
					},
					"indices":3,
					"material":0
				}
			]
		},
		{
			"name":"Lowpoly_Tree_11_Material_0.001",
			"primitives":[
				{
					"attributes":{
						"POSITION":4,
						"NORMAL":5,
						"TEXCOORD_0":6
					},
					"indices":7,
					"material":1
				}
			]
		}
	],
	"accessors":[
		{
			"bufferView":0,
			"componentType":5126,
			"count":544,
			"max":[
				15.058793067932129,
				111.29347229003906,
				15.245930671691895
			],
			"min":[
				-13.910855293273926,
				42.646583557128906,
				-14.421695709228516
			],
			"type":"VEC3"
		},
		{
			"bufferView":1,
			"componentType":5126,
			"count":544,
			"type":"VEC3"
		},
		{
			"bufferView":2,
			"componentType":5126,
			"count":544,
			"type":"VEC2"
		},
		{
			"bufferView":3,
			"componentType":5123,
			"count":564,
			"type":"SCALAR"
		},
		{
			"bufferView":4,
			"componentType":5126,
			"count":585,
			"max":[
				6.062922477722168,
				54.381988525390625,
				8.91203784942627
			],
			"min":[
				-5.795160293579102,
				0,
				-7.866103172302246
			],
			"type":"VEC3"
		},
		{
			"bufferView":5,
			"componentType":5126,
			"count":585,
			"type":"VEC3"
		},
		{
			"bufferView":6,
			"componentType":5126,
			"count":585,
			"type":"VEC2"
		},
		{
			"bufferView":7,
			"componentType":5123,
			"count":666,
			"type":"SCALAR"
		}
	],
	"bufferViews":[
		{
			"buffer":0,
			"byteLength":6528,
			"byteOffset":0,
			"target":34962
		},
		{
			"buffer":0,
			"byteLength":6528,
			"byteOffset":6528,
			"target":34962
		},
		{
			"buffer":0,
			"byteLength":4352,
			"byteOffset":13056,
			"target":34962
		},
		{
			"buffer":0,
			"byteLength":1128,
			"byteOffset":17408,
			"target":34963
		},
		{
			"buffer":0,
			"byteLength":7020,
			"byteOffset":18536,
			"target":34962
		},
		{
			"buffer":0,
			"byteLength":7020,
			"byteOffset":25556,
			"target":34962
		},
		{
			"buffer":0,
			"byteLength":4680,
			"byteOffset":32576,
			"target":34962
		},
		{
			"buffer":0,
			"byteLength":1332,
			"byteOffset":37256,
			"target":34963
		}
	],
	"buffers":[
		{
			"byteLength":38588,
			"uri":"tree_19.bin"
		}
	]
}
