{
	"asset":{
		"generator":"Khronos glTF Blender I/O v4.5.48",
		"version":"2.0"
	},
	"scene":0,
	"scenes":[
		{
			"name":"Scene",
			"nodes":[
				3
			]
		}
	],
	"nodes":[
		{
			"mesh":0,
			"name":"Object_2"
		},
		{
			"mesh":1,
			"name":"Object_3"
		},
		{
			"children":[
				0,
				1
			],
			"name":"Low poly Trunk.obj.cleaner.materialmerger.gles"
		},
		{
			"children":[
				2
			],
			"name":"Sketchfab_model",
			"rotation":[
				-0.70710688829422,
				0,
				0,
				0.7071066498756409
			]
		}
	],
	"materials":[
		{
			"doubleSided":true,
			"name":"Wood",
			"pbrMetallicRoughness":{
				"baseColorFactor":[
					0.33861398696899414,
					0.12962399423122406,
					0.067501001060009,
					1
				],
				"metallicFactor":0,
				"roughnessFactor":0.8434915542602539
			}
		},
		{
			"doubleSided":true,
			"name":"Wood_light",
			"pbrMetallicRoughness":{
				"baseColorFactor":[
					0.5621039867401123,
					0.30366799235343933,
					0.10916599631309509,
					1
				],
				"metallicFactor":0,
				"roughnessFactor":0.8434915542602539
			}
		}
	],
	"meshes":[
		{
			"name":"Object_0",
			"primitives":[
				{
					"attributes":{
						"POSITION":0,
						"NORMAL":1
					},
					"indices":2,
					"material":0
				}
			]
		},
		{
			"name":"Object_1",
			"primitives":[
				{
					"attributes":{
						"POSITION":3,
						"NORMAL":4
					},
					"indices":5,
					"material":1
				}
			]
		}
	],
	"accessors":[
		{
			"bufferView":0,
			"componentType":5126,
			"count":238,
			"max":[
				0.5663390159606934,
				0.5272240042686462,
				0.5543929934501648
			],
			"min":[
				-0.4340530037879944,
				-0.45938900113105774,
				-0.0021840000990778208
			],
			"type":"VEC3"
		},
		{
			"bufferView":1,
			"componentType":5126,
			"count":238,
			"type":"VEC3"
		},
		{
			"bufferView":2,
			"componentType":5123,
			"count":360,
			"type":"SCALAR"
		},
		{
			"bufferView":3,
			"componentType":5126,
			"count":26,
			"max":[
				0.2544409930706024,
				0.3943080008029938,
				0.5543929934501648
			],
			"min":[
				-0.25749000906944275,
				-0.3496600091457367,
				0.45032399892807007
			],
			"type":"VEC3"
		},
		{
			"bufferView":4,
			"componentType":5126,
			"count":26,
			"type":"VEC3"
		},
		{
			"bufferView":5,
			"componentType":5123,
			"count":42,
			"type":"SCALAR"
		}
	],
	"bufferViews":[
		{
			"buffer":0,
			"byteLength":2856,
			"byteOffset":0,
			"target":34962
		},
		{
			"buffer":0,
			"byteLength":2856,
			"byteOffset":2856,
			"target":34962
		},
		{
			"buffer":0,
			"byteLength":720,
			"byteOffset":5712,
			"target":34963
		},
		{
			"buffer":0,
			"byteLength":312,
			"byteOffset":6432,
			"target":34962
		},
		{
			"buffer":0,
			"byteLength":312,
			"byteOffset":6744,
			"target":34962
		},
		{
			"buffer":0,
			"byteLength":84,
			"byteOffset":7056,
			"target":34963
		}
	],
	"buffers":[
		{
			"byteLength":7140,
			"uri":"trunk.bin"
		}
	]
}
