{
  "accessors": [
    {
      "bufferView": 2,
      "componentType": 5126,
      "count": 65532,
      "max": [
        0.7978264093399048,
        1.5686724185943604,
        0.13572902977466583
      ],
      "min": [
        -0.9722989797592163,
        -1.3607951402664185,
        -0.028297167271375656
      ],
      "type": "VEC3"
    },
    {
      "bufferView": 2,
      "byteOffset": 786384,
      "componentType": 5126,
      "count": 65532,
      "max": [
        0.9403201341629028,
        0.8311167359352112,
        0.9999986886978149
      ],
      "min": [
        -0.8006764054298401,
        -0.8708785176277161,
        -0.9999872446060181
      ],
      "type": "VEC3"
    },
    {
      "bufferView": 1,
      "componentType": 5126,
      "count": 65532,
      "max": [
        0.9461373686790466,
        0.9999028444290161
      ],
      "min": [
        9.72551351878792e-05,
        9.72551351878792e-05
      ],
      "type": "VEC2"
    },
    {
      "bufferView": 0,
      "componentType": 5125,
      "count": 98298,
      "type": "SCALAR"
    },
    {
      "bufferView": 2,
      "byteOffset": 1572768,
      "componentType": 5126,
      "count": 65532,
      "max": [
        0.7281420230865479,
        1.8046330213546753,
        0.13038399815559387
      ],
      "min": [
        -0.29106640815734863,
        -1.5327130556106567,
        -0.0584261417388916
      ],
      "type": "VEC3"
    },
    {
      "bufferView": 2,
      "byteOffset": 2359152,
      "componentType": 5126,
      "count": 65532,
      "max": [
        0.854943573474884,
        0.8706383109092712,
        0.9999951720237732
      ],
      "min": [
        -0.9005035161972046,
        -0.9529814720153809,
        -0.9995354413986206
      ],
      "type": "VEC3"
    },
    {
      "bufferView": 1,
      "byteOffset": 524256,
      "componentType": 5126,
      "count": 65532,
      "max": [
        0.9184656143188477,
        0.9777999520301819
      ],
      "min": [
        0.09329354017972946,
        0.10807691514492035
      ],
      "type": "VEC2"
    },
    {
      "bufferView": 0,
      "byteOffset": 393192,
      "componentType": 5125,
      "count": 98298,
      "type": "SCALAR"
    },
    {
      "bufferView": 2,
      "byteOffset": 3145536,
      "componentType": 5126,
      "count": 65532,
      "max": [
        0.8796002864837646,
        1.81178879737854,
        0.40999817848205566
      ],
      "min": [
        -1.4252300262451172,
        -0.9368641376495361,
        -0.05024367570877075
      ],
      "type": "VEC3"
    },
    {
      "bufferView": 2,
      "byteOffset": 3931920,
      "componentType": 5126,
      "count": 65532,
      "max": [
        0.999894380569458,
        0.9326229691505432,
        0.9999790787696838
      ],
      "min": [
        -0.9836940765380859,
        -0.7156489491462708,
        -0.9999287724494934
      ],
      "type": "VEC3"
    },
    {
      "bufferView": 1,
      "byteOffset": 1048512,
      "componentType": 5126,
      "count": 65532,
      "max": [
        0.9461372494697571,
        0.9999028444290161
      ],
      "min": [
        0.05333942547440529,
        9.72551351878792e-05
      ],
      "type": "VEC2"
    },
    {
      "bufferView": 0,
      "byteOffset": 786384,
      "componentType": 5125,
      "count": 98298,
      "type": "SCALAR"
    },
    {
      "bufferView": 2,
      "byteOffset": 4718304,
      "componentType": 5126,
      "count": 65532,
      "max": [
        0.8206692934036255,
        1.7992662191390991,
        0.40999817848205566
      ],
      "min": [
        -1.4315544366836548,
        -0.9420487284660339,
        -0.12855850160121918
      ],
      "type": "VEC3"
    },
    {
      "bufferView": 2,
      "byteOffset": 5504688,
      "componentType": 5126,
      "count": 65532,
      "max": [
        0.981268048286438,
        0.8760302066802979,
        0.9926321506500244
      ],
      "min": [
        -0.996666669845581,
        -0.8698762655258179,
        -0.9999909400939941
      ],
      "type": "VEC3"
    },
    {
      "bufferView": 1,
      "byteOffset": 1572768,
      "componentType": 5126,
      "count": 65532,
      "max": [
        0.9461372494697571,
        0.977649450302124
      ],
      "min": [
        9.72551351878792e-05,
        0.22229067981243134
      ],
      "type": "VEC2"
    },
    {
      "bufferView": 0,
      "byteOffset": 1179576,
      "componentType": 5125,
      "count": 98298,
      "type": "SCALAR"
    },
    {
      "bufferView": 2,
      "byteOffset": 6291072,
      "componentType": 5126,
      "count": 65532,
      "max": [
        0.1531863510608673,
        1.815551519393921,
        0.21701335906982422
      ],
      "min": [
        -0.3805762231349945,
        -1.5292859077453613,
        -0.1359620839357376
      ],
      "type": "VEC3"
    },
    {
      "bufferView": 2,
      "byteOffset": 7077456,
      "componentType": 5126,
      "count": 65532,
      "max": [
        0.487880140542984,
        0.9998892545700073,
        0.3317502737045288
      ],
      "min": [
        -0.8792120814323425,
        -0.9476586580276489,
        -0.9999938607215881
      ],
      "type": "VEC3"
    },
    {
      "bufferView": 1,
      "byteOffset": 2097024,
      "componentType": 5126,
      "count": 65532,
      "max": [
        0.940636932849884,
        0.9581015706062317
      ],
      "min": [
        0.10390468686819077,
        0.22536110877990723
      ],
      "type": "VEC2"
    },
    {
      "bufferView": 0,
      "byteOffset": 1572768,
      "componentType": 5125,
      "count": 98298,
      "type": "SCALAR"
    },
    {
      "bufferView": 2,
      "byteOffset": 7863840,
      "componentType": 5126,
      "count": 65532,
      "max": [
        0.02459578402340412,
        1.4567103385925293,
        0.29675644636154175
      ],
      "min": [
        -0.3805762231349945,
        -1.3017611503601074,
        -0.11334685981273651
      ],
      "type": "VEC3"
    },
    {
      "bufferView": 2,
      "byteOffset": 8650224,
      "componentType": 5126,
      "count": 65532,
      "max": [
        0.8026885390281677,
        0.45491623878479004,
        0.9999791383743286
      ],
      "min": [
        -0.854438841342926,
        -0.44396916031837463,
        -0.9999985694885254
      ],
      "type": "VEC3"
    },
    {
      "bufferView": 1,
      "byteOffset": 2621280,
      "componentType": 5126,
      "count": 65532,
      "max": [
        0.802070140838623,
        0.8616169691085815
      ],
      "min": [
        0.20742788910865784,
        0.3138185739517212
      ],
      "type": "VEC2"
    },
    {
      "bufferView": 0,
      "byteOffset": 1965960,
      "componentType": 5125,
      "count": 98298,
      "type": "SCALAR"
    },
    {
      "bufferView": 2,
      "byteOffset": 9436608,
      "componentType": 5126,
      "count": 65532,
      "max": [
        0.7516581416130066,
        1.3696010112762451,
        0.4274258017539978
      ],
      "min": [
        -0.2895232141017914,
        -1.2457879781723022,
        -0.006886855233460665
      ],
      "type": "VEC3"
    },
    {
      "bufferView": 2,
      "byteOffset": 10222992,
      "componentType": 5126,
      "count": 65532,
      "max": [
        0.9793820381164551,
        0.2750602662563324,
        0.9999794960021973
      ],
      "min": [
        -0.9793867468833923,
        -0.6828096508979797,
        0.18577955663204193
      ],
      "type": "VEC3"
    },
    {
      "bufferView": 1,
      "byteOffset": 3145536,
      "componentType": 5126,
      "count": 65532,
      "max": [
        0.802070140838623,
        0.8616169095039368
      ],
      "min": [
        0.21573002636432648,
        0.1098218783736229
      ],
      "type": "VEC2"
    },
    {
      "bufferView": 0,
      "byteOffset": 2359152,
      "componentType": 5125,
      "count": 98298,
      "type": "SCALAR"
    },
    {
      "bufferView": 2,
      "byteOffset": 11009376,
      "componentType": 5126,
      "count": 65532,
      "max": [
        0.7330860495567322,
        1.3873851299285889,
        0.4274309575557709
      ],
      "min": [
        -1.2811203002929688,
        -1.447129487991333,
        -0.056476980447769165
      ],
      "type": "VEC3"
    },
    {
      "bufferView": 2,
      "byteOffset": 11795760,
      "componentType": 5126,
      "count": 65532,
      "max": [
        0.9834479689598083,
        0.7736860513687134,
        0.9999681711196899
      ],
      "min": [
        -0.9047955274581909,
        -0.8230153322219849,
        0.16153204441070557
      ],
      "type": "VEC3"
    },
    {
      "bufferView": 1,
      "byteOffset": 3669792,
      "componentType": 5126,
      "count": 65532,
      "max": [
        0.8004804253578186,
        0.970417857170105
      ],
      "min": [
        0.04927739500999451,
        0.11098110675811768
      ],
      "type": "VEC2"
    },
    {
      "bufferView": 0,
      "byteOffset": 2752344,
      "componentType": 5125,
      "count": 98298,
      "type": "SCALAR"
    },
    {
      "bufferView": 2,
      "byteOffset": 12582144,
      "componentType": 5126,
      "count": 65532,
      "max": [
        0.6892465353012085,
        1.723793387413025,
        0.4274309575557709
      ],
      "min": [
        -1.2862226963043213,
        -1.251920223236084,
        -0.056377001106739044
      ],
      "type": "VEC3"
    },
    {
      "bufferView": 2,
      "byteOffset": 13368528,
      "componentType": 5126,
      "count": 65532,
      "max": [
        0.9746920466423035,
        0.4088824987411499,
        0.9999793767929077
      ],
      "min": [
        -0.9793392419815063,
        -0.8262320756912231,
        0.1808897703886032
      ],
      "type": "VEC3"
    },
    {
      "bufferView": 1,
      "byteOffset": 4194048,
      "componentType": 5126,
      "count": 65532,
      "max": [
        0.9077504277229309,
        0.9538096189498901
      ],
      "min": [
        0.0486130490899086,
        0.3020225763320923
      ],
      "type": "VEC2"
    },
    {
      "bufferView": 0,
      "byteOffset": 3145536,
      "componentType": 5125,
      "count": 98298,
      "type": "SCALAR"
    },
    {
      "bufferView": 2,
      "byteOffset": 14154912,
      "componentType": 5126,
      "count": 65532,
      "max": [
        0.11999204009771347,
        1.7253460884094238,
        0.41017448902130127
      ],
      "min": [
        -0.2895232141017914,
        -1.4450244903564453,
        -0.05648289993405342
      ],
      "type": "VEC3"
    },
    {
      "bufferView": 2,
      "byteOffset": 14941296,
      "componentType": 5126,
      "count": 65532,
      "max": [
        0.9793654680252075,
        0.7689896821975708,
        0.9999788999557495
      ],
      "min": [
        -0.9836703538894653,
        -0.7594203352928162,
        0.17920927703380585
      ],
      "type": "VEC3"
    },
    {
      "bufferView": 1,
      "byteOffset": 4718304,
      "componentType": 5126,
      "count": 65532,
      "max": [
        0.9212689399719238,
        0.9474655389785767
      ],
      "min": [
        0.12369858473539352,
        0.21443136036396027
      ],
      "type": "VEC2"
    },
    {
      "bufferView": 0,
      "byteOffset": 3538728,
      "componentType": 5125,
      "count": 98298,
      "type": "SCALAR"
    },
    {
      "bufferView": 2,
      "byteOffset": 15727680,
      "componentType": 5126,
      "count": 65532,
      "max": [
        0.2715350091457367,
        1.7264245748519897,
        0.41017448902130127
      ],
      "min": [
        -0.49221035838127136,
        -0.17826750874519348,
        -0.10499484091997147
      ],
      "type": "VEC3"
    },
    {
      "bufferView": 2,
      "byteOffset": 16514064,
      "componentType": 5126,
      "count": 65532,
      "max": [
        0.9834755659103394,
        0.31988728046417236,
        0.9999657869338989
      ],
      "min": [
        -0.9505555033683777,
        -0.740635871887207,
        -0.9997809529304504
      ],
      "type": "VEC3"
    },
    {
      "bufferView": 1,
      "byteOffset": 5242560,
      "componentType": 5126,
      "count": 65532,
      "max": [
        0.9395241141319275,
        0.9482017159461975
      ],
      "min": [
        0.3768434226512909,
        0.4483036994934082
      ],
      "type": "VEC2"
    },
    {
      "bufferView": 0,
      "byteOffset": 3931920,
      "componentType": 5125,
      "count": 98298,
      "type": "SCALAR"
    },
    {
      "bufferView": 2,
      "byteOffset": 17300448,
      "componentType": 5126,
      "count": 65532,
      "max": [
        0.6981595754623413,
        1.8081198930740356,
        0.32429075241088867
      ],
      "min": [
        -1.2918055057525635,
        -1.293588638305664,
        -0.12792840600013733
      ],
      "type": "VEC3"
    },
    {
      "bufferView": 2,
      "byteOffset": 18086832,
      "componentType": 5126,
      "count": 65532,
      "max": [
        0.8707231283187866,
        0.9443184733390808,
        0.32942327857017517
      ],
      "min": [
        -0.9124961495399475,
        -0.44990935921669006,
        -0.9999802708625793
      ],
      "type": "VEC3"
    },
    {
      "bufferView": 1,
      "byteOffset": 5766816,
      "componentType": 5126,
      "count": 65532,
      "max": [
        0.9461374282836914,
        0.9999029636383057
      ],
      "min": [
        9.725514973979443e-05,
        0.22229067981243134
      ],
      "type": "VEC2"
    },
    {
      "bufferView": 0,
      "byteOffset": 4325112,
      "componentType": 5125,
      "count": 98298,
      "type": "SCALAR"
    },
    {
      "bufferView": 2,
      "byteOffset": 18873216,
      "componentType": 5126,
      "count": 65532,
      "max": [
        0.1948048323392868,
        1.405738115310669,
        0.30634698271751404
      ],
      "min": [
        -0.5618192553520203,
        -1.5357558727264404,
        -0.1368202567100525
      ],
      "type": "VEC3"
    },
    {
      "bufferView": 2,
      "byteOffset": 19659600,
      "componentType": 5126,
      "count": 65532,
      "max": [
        0.8947340250015259,
        0.45599666237831116,
        0.2732210159301758
      ],
      "min": [
        -0.8970008492469788,
        -0.9998970031738281,
        -0.9999861121177673
      ],
      "type": "VEC3"
    },
    {
      "bufferView": 1,
      "byteOffset": 6291072,
      "componentType": 5126,
      "count": 65532,
      "max": [
        0.9461372494697571,
        0.906122088432312
      ],
      "min": [
        0.11934476345777512,
        0.19392631947994232
      ],
      "type": "VEC2"
    },
    {
      "bufferView": 0,
      "byteOffset": 4718304,
      "componentType": 5125,
      "count": 98298,
      "type": "SCALAR"
    },
    {
      "bufferView": 2,
      "byteOffset": 20445984,
      "componentType": 5126,
      "count": 32820,
      "max": [
        0.7647350430488586,
        0.4023519456386566,
        0.32416030764579773
      ],
      "min": [
        -0.569968044757843,
        -1.296822190284729,
        -0.04048499837517738
      ],
      "type": "VEC3"
    },
    {
      "bufferView": 2,
      "byteOffset": 20839824,
      "componentType": 5126,
      "count": 32820,
      "max": [
        0.2109491378068924,
        0.5631178617477417,
        -0.4323361814022064
      ],
      "min": [
        -0.8990674018859863,
        -0.1686657965183258,
        -0.9999438524246216
      ],
      "type": "VEC3"
    },
    {
      "bufferView": 1,
      "byteOffset": 6815328,
      "componentType": 5126,
      "count": 32820,
      "max": [
        0.6618930697441101,
        0.688332200050354
      ],
      "min": [
        0.10390468686819077,
        9.725514973979443e-05
      ],
      "type": "VEC2"
    },
    {
      "bufferView": 0,
      "byteOffset": 5111496,
      "componentType": 5125,
      "count": 49230,
      "type": "SCALAR"
    }
  ],
  "asset": {
    "extras": {
      "author": "farhad.Guli (https://sketchfab.com/farhad.Guli)",
      "license": "CC-BY-4.0 (http://creativecommons.org/licenses/by/4.0/)",
      "source": "https://sketchfab.com/3d-models/single-leaf-002c974f7dec492a940abddab3104bab",
      "title": "Single leaf"
    },
    "generator": "Sketchfab-12.67.0",
    "version": "2.0"
  },
  "bufferViews": [
    {
      "buffer": 0,
      "byteLength": 5308416,
      "name": "floatBufferViews",
      "target": 34963
    },
    {
      "buffer": 0,
      "byteLength": 7077888,
      "byteOffset": 5308416,
      "byteStride": 8,
      "name": "floatBufferViews",
      "target": 34962
    },
    {
      "buffer": 0,
      "byteLength": 21233664,
      "byteOffset": 12386304,
      "byteStride": 12,
      "name": "floatBufferViews",
      "target": 34962
    }
  ],
  "buffers": [
    {
      "byteLength": 33619968,
      "uri": "scene.bin"
    }
  ],
  "images": [
    {
      "uri": "textures/Material.002_baseColor.png"
    }
  ],
  "materials": [
    {
      "doubleSided": true,
      "name": "Material.002",
      "pbrMetallicRoughness": {
        "baseColorTexture": {
          "index": 0
        },
        "metallicFactor": 0.0,
        "roughnessFactor": 0.8211145618000169
      }
    }
  ],
  "meshes": [
    {
      "name": "Plane_Material.002_0",
      "primitives": [
        {
          "attributes": {
            "NORMAL": 1,
            "POSITION": 0,
            "TEXCOORD_0": 2
          },
          "indices": 3,
          "material": 0,
          "mode": 4
        }
      ]
    },
    {
      "name": "Plane_Material.002_0",
      "primitives": [
        {
          "attributes": {
            "NORMAL": 5,
            "POSITION": 4,
            "TEXCOORD_0": 6
          },
          "indices": 7,
          "material": 0,
          "mode": 4
        }
      ]
    },
    {
      "name": "Plane_Material.002_0",
      "primitives": [
        {
          "attributes": {
            "NORMAL": 9,
            "POSITION": 8,
            "TEXCOORD_0": 10
          },
          "indices": 11,
          "material": 0,
          "mode": 4
        }
      ]
    },
    {
      "name": "Plane_Material.002_0",
      "primitives": [
        {
          "attributes": {
            "NORMAL": 13,
            "POSITION": 12,
            "TEXCOORD_0": 14
          },
          "indices": 15,
          "material": 0,
          "mode": 4
        }
      ]
    },
    {
      "name": "Plane_Material.002_0",
      "primitives": [
        {
          "attributes": {
            "NORMAL": 17,
            "POSITION": 16,
            "TEXCOORD_0": 18
          },
          "indices": 19,
          "material": 0,
          "mode": 4
        }
      ]
    },
    {
      "name": "Plane_Material.002_0",
      "primitives": [
        {
          "attributes": {
            "NORMAL": 21,
            "POSITION": 20,
            "TEXCOORD_0": 22
          },
          "indices": 23,
          "material": 0,
          "mode": 4
        }
      ]
    },
    {
      "name": "Plane_Material.002_0",
      "primitives": [
        {
          "attributes": {
            "NORMAL": 25,
            "POSITION": 24,
            "TEXCOORD_0": 26
          },
          "indices": 27,
          "material": 0,
          "mode": 4
        }
      ]
    },
    {
      "name": "Plane_Material.002_0",
      "primitives": [
        {
          "attributes": {
            "NORMAL": 29,
            "POSITION": 28,
            "TEXCOORD_0": 30
          },
          "indices": 31,
          "material": 0,
          "mode": 4
        }
      ]
    },
    {
      "name": "Plane_Material.002_0",
      "primitives": [
        {
          "attributes": {
            "NORMAL": 33,
            "POSITION": 32,
            "TEXCOORD_0": 34
          },
          "indices": 35,
          "material": 0,
          "mode": 4
        }
      ]
    },
    {
      "name": "Plane_Material.002_0",
      "primitives": [
        {
          "attributes": {
            "NORMAL": 37,
            "POSITION": 36,
            "TEXCOORD_0": 38
          },
          "indices": 39,
          "material": 0,
          "mode": 4
        }
      ]
    },
    {
      "name": "Plane_Material.002_0",
      "primitives": [
        {
          "attributes": {
            "NORMAL": 41,
            "POSITION": 40,
            "TEXCOORD_0": 42
          },
          "indices": 43,
          "material": 0,
          "mode": 4
        }
      ]
    },
    {
      "name": "Plane_Material.002_0",
      "primitives": [
        {
          "attributes": {
            "NORMAL": 45,
            "POSITION": 44,
            "TEXCOORD_0": 46
          },
          "indices": 47,
          "material": 0,
          "mode": 4
        }
      ]
    },
    {
      "name": "Plane_Material.002_0",
      "primitives": [
        {
          "attributes": {
            "NORMAL": 49,
            "POSITION": 48,
            "TEXCOORD_0": 50
          },
          "indices": 51,
          "material": 0,
          "mode": 4
        }
      ]
    },
    {
      "name": "Plane_Material.002_0",
      "primitives": [
        {
          "attributes": {
            "NORMAL": 53,
            "POSITION": 52,
            "TEXCOORD_0": 54
          },
          "indices": 55,
          "material": 0,
          "mode": 4
        }
      ]
    }
  ],
  "nodes": [
    {
      "children": [
        1
      ],
      "matrix": [
        1.0,
        0.0,
        0.0,
        0.0,
        0.0,
        2.220446049250313e-16,
        -1.0,
        0.0,
        0.0,
        1.0,
        2.220446049250313e-16,
        0.0,
        0.0,
        0.0,
        0.0,
        1.0
      ],
      "name": "Sketchfab_model"
    },
    {
      "children": [
        2
      ],
      "matrix": [
        0.009999999776482582,
        0.0,
        0.0,
        0.0,
        0.0,
        0.0,
        0.009999999776482582,
        0.0,
        0.0,
        -0.009999999776482582,
        0.0,
        0.0,
        0.0,
        0.0,
        0.0,
        1.0
      ],
      "name": "leaf.fbx"
    },
    {
      "children": [
        3
      ],
      "name": "RootNode"
    },
    {
      "children": [
        4,
        5,
        6,
        7,
        8,
        9,
        10,
        11,
        12,
        13,
        14,
        15,
        16,
        17
      ],
      "matrix": [
        100.0,
        0.0,
        0.0,
        0.0,
        0.0,
        -2.4771992845803473e-05,
        -152.04940795898236,
        0.0,
        0.0,
        99.99999999999868,
        -1.629206793918314e-05,
        0.0,
        0.0,
        0.0,
        0.0,
        1.0
      ],
      "name": "Plane"
    },
    {
      "mesh": 0,
      "name": "Plane_Material.002_0"
    },
    {
      "mesh": 1,
      "name": "Plane_Material.002_0"
    },
    {
      "mesh": 2,
      "name": "Plane_Material.002_0"
    },
    {
      "mesh": 3,
      "name": "Plane_Material.002_0"
    },
    {
      "mesh": 4,
      "name": "Plane_Material.002_0"
    },
    {
      "mesh": 5,
      "name": "Plane_Material.002_0"
    },
    {
      "mesh": 6,
      "name": "Plane_Material.002_0"
    },
    {
      "mesh": 7,
      "name": "Plane_Material.002_0"
    },
    {
      "mesh": 8,
      "name": "Plane_Material.002_0"
    },
    {
      "mesh": 9,
      "name": "Plane_Material.002_0"
    },
    {
      "mesh": 10,
      "name": "Plane_Material.002_0"
    },
    {
      "mesh": 11,
      "name": "Plane_Material.002_0"
    },
    {
      "mesh": 12,
      "name": "Plane_Material.002_0"
    },
    {
      "mesh": 13,
      "name": "Plane_Material.002_0"
    }
  ],
  "samplers": [
    {
      "magFilter": 9729,
      "minFilter": 9987,
      "wrapS": 10497,
      "wrapT": 10497
    }
  ],
  "scene": 0,
  "scenes": [
    {
      "name": "Sketchfab_Scene",
      "nodes": [
        0
      ]
    }
  ],
  "textures": [
    {
      "sampler": 0,
      "source": 0
    }
  ]
}
