{
  "accessors": [
    {
      "bufferView": 2,
      "componentType": 5126,
      "count": 11605,
      "max": [
        2.742896795272827,
        5.754148483276367,
        2.730727195739746
      ],
      "min": [
        -2.7416999340057373,
        0.16195662319660187,
        -2.735384464263916
      ],
      "type": "VEC3"
    },
    {
      "bufferView": 2,
      "byteOffset": 139260,
      "componentType": 5126,
      "count": 11605,
      "max": [
        0.999998927116394,
        1.0,
        0.9998180866241455
      ],
      "min": [
        -0.9999989867210388,
        -0.9999830722808838,
        -0.9998182654380798
      ],
      "type": "VEC3"
    },
    {
      "bufferView": 1,
      "componentType": 5126,
      "count": 11605,
      "max": [
        0.9676649570465088,
        0.9868543148040771
      ],
      "min": [
        0.03063148260116577,
        0.009158551692962646
      ],
      "type": "VEC2"
    },
    {
      "bufferView": 1,
      "byteOffset": 92840,
      "componentType": 5126,
      "count": 11605,
      "max": [
        0.9676649570465088,
        0.9868543148040771
      ],
      "min": [
        0.03063148260116577,
        0.009158551692962646
      ],
      "type": "VEC2"
    },
    {
      "bufferView": 1,
      "byteOffset": 185680,
      "componentType": 5126,
      "count": 11605,
      "max": [
        0.9676649570465088,
        0.9868543148040771
      ],
      "min": [
        0.03063148260116577,
        0.009158551692962646
      ],
      "type": "VEC2"
    },
    {
      "bufferView": 0,
      "componentType": 5125,
      "count": 51084,
      "type": "SCALAR"
    }
  ],
  "asset": {
    "extras": {
      "author": "Sufi_Artist (https://sketchfab.com/Sufi_Artist)",
      "license": "CC-BY-4.0 (http://creativecommons.org/licenses/by/4.0/)",
      "source": "https://sketchfab.com/3d-models/colorful-cartoon-party-hat-3d-model-38b853ef71514231a1c1e295e924d34a",
      "title": "Colorful Cartoon Party Hat 3D Model"
    },
    "generator": "Sketchfab-16.45.0",
    "version": "2.0"
  },
  "bufferViews": [
    {
      "buffer": 0,
      "byteLength": 204336,
      "name": "floatBufferViews",
      "target": 34963
    },
    {
      "buffer": 0,
      "byteLength": 278520,
      "byteOffset": 204336,
      "byteStride": 8,
      "name": "floatBufferViews",
      "target": 34962
    },
    {
      "buffer": 0,
      "byteLength": 278520,
      "byteOffset": 482856,
      "byteStride": 12,
      "name": "floatBufferViews",
      "target": 34962
    }
  ],
  "buffers": [
    {
      "byteLength": 761376,
      "uri": "scene.bin"
    }
  ],
  "extensionsRequired": [
    "KHR_materials_pbrSpecularGlossiness"
  ],
  "extensionsUsed": [
    "KHR_materials_pbrSpecularGlossiness"
  ],
  "images": [
    {
      "uri": "textures/material_diffuse.png"
    },
    {
      "uri": "textures/material_specularGlossiness.png"
    }
  ],
  "materials": [
    {
      "doubleSided": true,
      "extensions": {
        "KHR_materials_pbrSpecularGlossiness": {
          "diffuseFactor": [
            1.0,
            1.0,
            1.0,
            1.0
          ],
          "diffuseTexture": {
            "index": 0
          },
          "glossinessFactor": 1.0,
          "specularFactor": [
            1.0,
            1.0,
            1.0
          ],
          "specularGlossinessTexture": {
            "index": 1
          }
        }
      },
      "name": "material"
    }
  ],
  "meshes": [
    {
      "name": "Object_0",
      "primitives": [
        {
          "attributes": {
            "NORMAL": 1,
            "POSITION": 0,
            "TEXCOORD_0": 2,
            "TEXCOORD_1": 3,
            "TEXCOORD_2": 4
          },
          "indices": 5,
          "material": 0,
          "mode": 4
        }
      ]
    }
  ],
  "nodes": [
    {
      "children": [
        1
      ],
      "matrix": [
        1.0,
        0.0,
        0.0,
        0.0,
        0.0,
        2.220446049250313e-16,
        -1.0,
        0.0,
        0.0,
        1.0,
        2.220446049250313e-16,
        0.0,
        0.0,
        0.0,
        0.0,
        1.0
      ],
      "name": "Sketchfab_model"
    },
    {
      "children": [
        2
      ],
      "name": "root"
    },
    {
      "children": [
        3
      ],
      "matrix": [
        1.0,
        0.0,
        0.0,
        0.0,
        0.0,
        2.220446049250313e-16,
        1.0,
        0.0,
        0.0,
        -1.0,
        2.220446049250313e-16,
        0.0,
        0.0,
        0.0,
        0.0,
        1.0
      ],
      "name": "GLTF_SceneRootNode"
    },
    {
      "children": [
        4
      ],
      "name": "root_0"
    },
    {
      "children": [
        5
      ],
      "matrix": [
        0.09155622869729996,
        0.0,
        0.0,
        0.0,
        0.0,
        0.09155622869729996,
        0.0,
        0.0,
        0.0,
        0.0,
        0.09155622869729996,
        0.0,
        -5.419464650913142e-05,
        -0.2708284556865692,
        0.2562122344970703,
        1.0
      ],
      "name": "node_id74_1"
    },
    {
      "mesh": 0,
      "name": "Object_5"
    }
  ],
  "samplers": [
    {
      "magFilter": 9729,
      "minFilter": 9987,
      "wrapS": 10497,
      "wrapT": 10497
    }
  ],
  "scene": 0,
  "scenes": [
    {
      "name": "Sketchfab_Scene",
      "nodes": [
        0
      ]
    }
  ],
  "textures": [
    {
      "sampler": 0,
      "source": 0
    },
    {
      "sampler": 0,
      "source": 1
    }
  ]
}
