{
	"asset":{
		"version":"2.0",
		"generator":"Created using the official Cinema 4D glTF Exporter 1.000x284978"
	},
	"scenes":[{
		"nodes":[0]
	}],
	"nodes":[{
		"name":"Subdivision Surface",
		"translation":[0.0,
		0.0,
		0.0],
		"rotation":[0.0,
		0.0,
		0.0,
		-1.0],
		"scale":[1.0,
		1.0,
		1.0],
		"children":[1]
	},
	{
		"name":"Null",
		"translation":[0.0,
		87.73847961425781,
		0.0],
		"rotation":[0.0,
		0.0,
		0.0,
		-1.0],
		"scale":[1.0,
		1.0,
		1.0],
		"children":[2,
		3]
	},
	{
		"name":"Cylinder.1",
		"translation":[0.0,
		-15.960846900939942,
		0.0],
		"rotation":[0.0,
		0.0,
		0.0,
		-1.0],
		"scale":[1.0,
		1.0,
		1.0],
		"mesh":0
	},
	{
		"name":"Cylinder",
		"translation":[0.0,
		15.960846900939942,
		0.0],
		"rotation":[0.0,
		0.0,
		0.0,
		-1.0],
		"scale":[1.0,
		1.0,
		1.0],
		"children":[4,
		5]
	},
	{
		"name":"Cylinder-Mat",
		"mesh":1
	},
	{
		"name":"Cylinder-Mat",
		"mesh":2
	}],
	"bufferViews":[{
		"buffer":0,
		"byteOffset":0,
		"byteLength":7680,
		"target":34963
	},
	{
		"buffer":0,
		"byteStride":32,
		"byteOffset":7680,
		"byteLength":26880,
		"target":34962
	},
	{
		"buffer":1,
		"byteOffset":0,
		"byteLength":15312,
		"target":34963
	},
	{
		"buffer":1,
		"byteStride":32,
		"byteOffset":15312,
		"byteLength":46784,
		"target":34962
	},
	{
		"buffer":2,
		"byteOffset":0,
		"byteLength":4656,
		"target":34963
	},
	{
		"buffer":2,
		"byteStride":32,
		"byteOffset":4656,
		"byteLength":14208,
		"target":34962
	}],
	"meshes":[{
		"name":"Cylinder.1",
		"primitives":[{
			"attributes":{
				"POSITION":1,
				"NORMAL":2,
				"TEXCOORD_0":3
			},
			"indices":0,
			"material":0
		}]
	},
	{
		"name":"Cylinder-Mat",
		"primitives":[{
			"attributes":{
				"POSITION":5,
				"NORMAL":6,
				"TEXCOORD_0":7
			},
			"indices":4,
			"material":0
		}]
	},
	{
		"name":"Cylinder-Mat",
		"primitives":[{
			"attributes":{
				"POSITION":9,
				"NORMAL":10,
				"TEXCOORD_0":11
			},
			"indices":8,
			"material":1
		}]
	}],
	"accessors":[{
		"bufferView":0,
		"type":"SCALAR",
		"componentType":5123,
		"count":3840,
		"byteOffset":0,
		"min":[0],
		"max":[839]
	},
	{
		"bufferView":1,
		"type":"VEC3",
		"componentType":5126,
		"count":840,
		"byteOffset":0,
		"min":[-64.53589630126953,
		-4.436949729919434,
		-64.53589630126953],
		"max":[64.53589630126953,
		21.051368713378908,
		64.53589630126953]
	},
	{
		"bufferView":1,
		"type":"VEC3",
		"componentType":5126,
		"count":840,
		"byteOffset":12,
		"min":[-0.5954887270927429,
		-0.9999420046806336,
		-0.441110223531723],
		"max":[0.6574236750602722,
		0.9998820424079895,
		0.4475899636745453]
	},
	{
		"bufferView":1,
		"type":"VEC2",
		"componentType":5126,
		"count":840,
		"byteOffset":24,
		"min":[0.001953125,
		0.0],
		"max":[0.998046875,
		1.0]
	},
	{
		"bufferView":2,
		"type":"SCALAR",
		"componentType":5123,
		"count":7656,
		"byteOffset":0,
		"min":[0],
		"max":[1461]
	},
	{
		"bufferView":3,
		"type":"VEC3",
		"componentType":5126,
		"count":1462,
		"byteOffset":0,
		"min":[-52.56407928466797,
		-29.376834869384767,
		-52.720115661621097],
		"max":[52.56407928466797,
		71.19786071777344,
		52.720115661621097]
	},
	{
		"bufferView":3,
		"type":"VEC3",
		"componentType":5126,
		"count":1462,
		"byteOffset":12,
		"min":[-0.9999999403953552,
		-0.9731533527374268,
		-0.9999999403953552],
		"max":[0.9999999403953552,
		1.0,
		0.9999999403953552]
	},
	{
		"bufferView":3,
		"type":"VEC2",
		"componentType":5126,
		"count":1462,
		"byteOffset":24,
		"min":[0.001953125,
		0.0],
		"max":[0.998046875,
		1.0]
	},
	{
		"bufferView":4,
		"type":"SCALAR",
		"componentType":5123,
		"count":2328,
		"byteOffset":0,
		"min":[0],
		"max":[443]
	},
	{
		"bufferView":5,
		"type":"VEC3",
		"componentType":5126,
		"count":444,
		"byteOffset":0,
		"min":[-46.94993591308594,
		-30.606220245361329,
		-46.94993209838867],
		"max":[46.94993591308594,
		-10.316678047180176,
		46.94993209838867]
	},
	{
		"bufferView":5,
		"type":"VEC3",
		"componentType":5126,
		"count":444,
		"byteOffset":12,
		"min":[-1.0,
		-0.999930202960968,
		-0.9999999403953552],
		"max":[1.0,
		0.0000010258619340675069,
		1.0]
	},
	{
		"bufferView":5,
		"type":"VEC2",
		"componentType":5126,
		"count":444,
		"byteOffset":24,
		"min":[0.011893821880221367,
		0.011893821880221367],
		"max":[0.9881062507629395,
		0.9881061315536499]
	}],
	"buffers":[{
		"uri":"data:application/octet-stream;base64,",
		"byteLength":34560
	},
	{
		"uri":"data:application/octet-stream;base64,",
		"byteLength":62096
	},
	{
		"uri":"data:application/octet-stream;base64,",
		"byteLength":18864
	}],
	"materials":[{
		"pbrMetallicRoughness":{
			"baseColorFactor":[1.0,
			0.37,
			0.37,
			1.0],
			"metallicFactor":0.0,
			"roughnessFactor":0.5
		},
		"emissiveFactor":[0.0,
		0.0,
		0.0],
		"alphaMode":"OPAQUE",
		"doubleSided":false,
		"name":"Mat"
	},
	{
		"pbrMetallicRoughness":{
			"baseColorFactor":[0.05,
			0.018499999999999997,
			0.018499999999999997,
			1.0],
			"metallicFactor":0.0,
			"roughnessFactor":0.5
		},
		"emissiveFactor":[0.0,
		0.0,
		0.0],
		"alphaMode":"OPAQUE",
		"doubleSided":false,
		"name":"Mat"
	}]
}