{
  "accessors": [
    {
      "bufferView": 2,
      "componentType": 5126,
      "count": 1645,
      "max": [
        0.9854485988616943,
        1.6666202545166016,
        0.39044222235679626
      ],
      "min": [
        -0.9679924249649048,
        -1.6073696613311768,
        -0.7740323543548584
      ],
      "type": "VEC3"
    },
    {
      "bufferView": 2,
      "byteOffset": 19740,
      "componentType": 5126,
      "count": 1645,
      "max": [
        0.6535876393318176,
        0.9997848868370056,
        0.14921417832374573
      ],
      "min": [
        -0.6865583062171936,
        -0.8341387510299683,
        -0.9999818205833435
      ],
      "type": "VEC3"
    },
    {
      "bufferView": 3,
      "componentType": 5126,
      "count": 1645,
      "max": [
        0.045387640595436096,
        0.9626188278198242,
        0.6300037503242493,
        1.0
      ],
      "min": [
        -0.9999957084655762,
        -0.9898602366447449,
        -0.6278731822967529,
        1.0
      ],
      "type": "VEC4"
    },
    {
      "bufferView": 1,
      "componentType": 5126,
      "count": 1645,
      "max": [
        0.9769799113273621,
        0.9763480424880981
      ],
      "min": [
        0.029412558302283287,
        0.053231388330459595
      ],
      "type": "VEC2"
    },
    {
      "bufferView": 1,
      "byteOffset": 13160,
      "componentType": 5126,
      "count": 1645,
      "max": [
        0.9769799113273621,
        0.9763480424880981
      ],
      "min": [
        0.029412558302283287,
        0.053231388330459595
      ],
      "type": "VEC2"
    },
    {
      "bufferView": 1,
      "byteOffset": 26320,
      "componentType": 5126,
      "count": 1645,
      "max": [
        0.9769799113273621,
        0.9763480424880981
      ],
      "min": [
        0.029412558302283287,
        0.053231388330459595
      ],
      "type": "VEC2"
    },
    {
      "bufferView": 0,
      "componentType": 5125,
      "count": 9456,
      "type": "SCALAR"
    }
  ],
  "asset": {
    "extras": {
      "author": "Kade.Wolfe (https://sketchfab.com/Kade.Wolfe)",
      "license": "CC-BY-4.0 (http://creativecommons.org/licenses/by/4.0/)",
      "source": "https://sketchfab.com/3d-models/big-leaf-b785fa1157c64174acb30d2c6eafb84a",
      "title": "Big Leaf"
    },
    "generator": "Sketchfab-15.55.0",
    "version": "2.0"
  },
  "bufferViews": [
    {
      "buffer": 0,
      "byteLength": 37824,
      "name": "floatBufferViews",
      "target": 34963
    },
    {
      "buffer": 0,
      "byteLength": 39480,
      "byteOffset": 37824,
      "byteStride": 8,
      "name": "floatBufferViews",
      "target": 34962
    },
    {
      "buffer": 0,
      "byteLength": 39480,
      "byteOffset": 77304,
      "byteStride": 12,
      "name": "floatBufferViews",
      "target": 34962
    },
    {
      "buffer": 0,
      "byteLength": 26320,
      "byteOffset": 116784,
      "byteStride": 16,
      "name": "floatBufferViews",
      "target": 34962
    }
  ],
  "buffers": [
    {
      "byteLength": 143104,
      "uri": "scene.bin"
    }
  ],
  "extensionsUsed": [
    "KHR_materials_specular"
  ],
  "images": [
    {
      "uri": "textures/Material_baseColor.png"
    },
    {
      "uri": "textures/Material_metallicRoughness.png"
    },
    {
      "uri": "textures/Material_normal.png"
    }
  ],
  "materials": [
    {
      "doubleSided": true,
      "extensions": {
        "KHR_materials_specular": {
          "specularColorFactor": [
            1.0,
            1.0,
            1.0
          ],
          "specularFactor": 0.07161926588728651
        }
      },
      "name": "Material",
      "normalTexture": {
        "index": 2
      },
      "pbrMetallicRoughness": {
        "baseColorTexture": {
          "index": 0
        },
        "metallicFactor": 0.028952469188477523,
        "metallicRoughnessTexture": {
          "index": 1
        },
        "roughnessFactor": 0.44952517950530896
      }
    }
  ],
  "meshes": [
    {
      "name": "Plane.002_Material_0",
      "primitives": [
        {
          "attributes": {
            "NORMAL": 1,
            "POSITION": 0,
            "TANGENT": 2,
            "TEXCOORD_0": 3,
            "TEXCOORD_1": 4,
            "TEXCOORD_2": 5
          },
          "indices": 6,
          "material": 0,
          "mode": 4
        }
      ]
    }
  ],
  "nodes": [
    {
      "children": [
        1
      ],
      "matrix": [
        1.0,
        0.0,
        0.0,
        0.0,
        0.0,
        2.220446049250313e-16,
        -1.0,
        0.0,
        0.0,
        1.0,
        2.220446049250313e-16,
        0.0,
        0.0,
        0.0,
        0.0,
        1.0
      ],
      "name": "Sketchfab_model"
    },
    {
      "children": [
        2
      ],
      "matrix": [
        0.009999999776482582,
        0.0,
        0.0,
        0.0,
        0.0,
        0.0,
        0.009999999776482582,
        0.0,
        0.0,
        -0.009999999776482582,
        0.0,
        0.0,
        0.0,
        0.0,
        0.0,
        1.0
      ],
      "name": "4f1489590fef431faddc1e38c20e1878.fbx"
    },
    {
      "children": [
        3
      ],
      "name": "RootNode"
    },
    {
      "children": [
        4
      ],
      "matrix": [
        178.9024200439453,
        0.0,
        0.0,
        0.0,
        0.0,
        -2.9146903818402368e-05,
        -178.90242004394295,
        0.0,
        0.0,
        178.90242004394295,
        -2.9146903818402368e-05,
        0.0,
        0.0,
        0.0,
        0.0,
        1.0
      ],
      "name": "Plane.002"
    },
    {
      "mesh": 0,
      "name": "Plane.002_Material_0"
    }
  ],
  "samplers": [
    {
      "magFilter": 9729,
      "minFilter": 9987,
      "wrapS": 10497,
      "wrapT": 10497
    }
  ],
  "scene": 0,
  "scenes": [
    {
      "name": "Sketchfab_Scene",
      "nodes": [
        0
      ]
    }
  ],
  "textures": [
    {
      "sampler": 0,
      "source": 0
    },
    {
      "sampler": 0,
      "source": 1
    },
    {
      "sampler": 0,
      "source": 2
    }
  ]
}
